<svg width="254" height="307" viewBox="0 0 254 307" fill="none" xmlns="http://www.w3.org/2000/svg">
<path d="M126.872 0C128.102 -1.50991e-06 129.327 0.0189592 130.549 0.0537109C125.042 2.98459 119.27 6.45805 112.813 10.6846L112.89 10.8838L113.422 10.9492C118.03 11.5064 122.227 11.8306 126.096 11.916C132.767 7.42357 138.911 4.00092 145.232 1.32031C151.449 2.22094 157.522 3.57056 163.415 5.33789C149.922 15.6239 136.093 18.2354 113.439 15.4961L120.59 34.167C133.472 34.6121 143.469 33.674 152.287 30.9414L146.488 44.6514L167.023 53.8359L175.956 32.7197L162.529 26.7139C169.032 23.3148 175.221 18.6592 181.968 12.54C197.096 19.8317 210.558 30.0325 221.621 42.4141L218.462 42.5664L209.4 33.6504C209.044 33.2997 208.6 33.0479 208.114 32.9199C207.629 32.7921 207.118 32.7921 206.633 32.9209C206.148 33.0498 205.705 33.303 205.349 33.6543C204.993 34.0058 204.736 34.4442 204.604 34.9248L201.252 47.1387L189.897 52.9297C189.451 53.1577 189.072 53.4985 188.799 53.917C188.526 54.3355 188.368 54.8177 188.342 55.3154C188.316 55.813 188.422 56.3086 188.649 56.7529C188.877 57.1973 189.218 57.5758 189.639 57.8486L200.319 64.7803L202.363 77.2764C202.444 77.7682 202.653 78.2305 202.97 78.6172C203.287 79.0039 203.701 79.3018 204.17 79.4805C204.639 79.6591 205.148 79.7128 205.645 79.6357C206.141 79.5586 206.609 79.3532 207.001 79.041L216.953 71.1104L229.572 73.0449C230.069 73.1211 230.578 73.0661 231.047 72.8867C231.516 72.7073 231.929 72.4086 232.245 72.0215C232.561 71.6342 232.77 71.1717 232.85 70.6797C232.929 70.1875 232.877 69.6828 232.698 69.2168L228.167 57.3828L230.278 53.2334C242.763 70.71 250.908 91.4846 253.13 113.997C249.057 107.44 244.772 102.03 241.774 99.9102C234.245 94.5899 185.407 109.215 178.246 117.514C171.086 125.813 174.977 157.487 182.977 168.729C189.013 177.211 232.616 166.271 253.657 154.846C253.62 166.66 253.575 181.003 253.534 195.401C238.575 198.463 230.448 201.46 217.021 210.249L217.064 210.36L217.362 210.397C219.942 210.709 222.292 210.891 224.458 210.938C232.5 205.523 239.171 202.882 248.417 201.193C250.019 199.616 251.674 197.817 253.428 195.774L253.534 195.65C253.531 196.918 253.527 198.186 253.523 199.453C242.664 211.602 234.551 215.022 217.373 212.945L221.376 223.397C228.587 223.647 234.183 223.121 239.119 221.592L235.874 229.267L247.37 234.408L252.37 222.587L244.853 219.225C247.759 217.705 250.554 215.737 253.485 213.263C253.433 232.92 253.392 250.659 253.392 259.659C253.392 274.212 245.951 286.661 234.23 295.054C234.931 294.002 235.548 292.891 236.07 291.727C234.899 291.59 233.74 291.364 232.603 291.052C229.693 290.265 226.967 288.909 224.585 287.063C222.203 285.216 220.21 282.915 218.723 280.294C217.223 277.68 216.255 274.795 215.878 271.805C215.501 268.815 215.72 265.779 216.524 262.874C216.835 261.737 217.233 260.625 217.713 259.548C212.873 259.001 207.985 260.006 203.754 262.418C199.523 264.83 196.168 268.524 194.175 272.967C195.346 273.103 196.506 273.329 197.643 273.642C200.553 274.429 203.279 275.786 205.661 277.633C208.043 279.48 210.035 281.781 211.521 284.403C213.021 287.017 213.989 289.902 214.366 292.892C214.744 295.881 214.524 298.915 213.721 301.819C213.566 302.386 213.388 302.953 213.191 303.503C213.059 303.873 212.913 304.245 212.759 304.613C207.652 305.813 202.255 306.453 196.682 306.453C165.163 306.453 139.621 288.973 139.621 256.858C139.621 239.479 139.625 225.198 139.628 215.752C139.983 216.351 140.472 216.862 141.057 217.244L158.022 228.343L161.27 248.347C161.397 249.134 161.73 249.875 162.233 250.494C162.737 251.113 163.395 251.589 164.141 251.875C164.886 252.161 165.694 252.246 166.482 252.123C167.271 252 168.014 251.672 168.637 251.172L184.448 238.477L204.494 241.572C205.283 241.694 206.091 241.607 206.836 241.32C207.581 241.033 208.238 240.555 208.74 239.935C209.243 239.315 209.574 238.574 209.7 237.786C209.827 236.998 209.745 236.19 209.461 235.444L202.262 216.499L211.4 198.407C211.76 197.695 211.926 196.902 211.883 196.106C211.839 195.31 211.588 194.539 211.153 193.87C210.719 193.202 210.116 192.659 209.406 192.295C208.696 191.931 207.903 191.76 207.106 191.798L186.845 192.779L172.449 178.507C171.883 177.945 171.178 177.542 170.407 177.337C169.636 177.132 168.824 177.133 168.053 177.339C167.282 177.545 166.578 177.95 166.013 178.513C165.447 179.076 165.039 179.777 164.829 180.547L159.504 200.099L141.467 209.371C140.757 209.736 140.154 210.28 139.721 210.95C139.689 211 139.659 211.051 139.629 211.102C139.63 206.012 139.631 203.21 139.631 203.21C139.631 198.812 136.066 195.248 131.669 195.248C127.272 195.248 123.708 198.812 123.708 203.21V230.265C120.431 221.985 114.173 212.526 110.642 210.029C105.703 206.542 73.6841 216.13 68.9893 221.571C64.2945 227.013 66.8456 247.78 72.0908 255.151C76.6739 261.591 114.282 250.958 123.708 242.525V256.881C123.708 287.245 103.12 306.453 61.874 306.453C58.1587 306.453 54.5082 306.223 50.9531 305.771C51.0262 305.723 51.0983 305.674 51.167 305.619L61.1201 297.688L73.7383 299.623C74.235 299.699 74.7439 299.644 75.2129 299.465C75.6818 299.285 76.0958 298.987 76.4121 298.6C76.7282 298.212 76.9361 297.75 77.0156 297.258C77.0951 296.766 77.0438 296.261 76.8652 295.795L72.334 283.961L78.0859 272.66C78.3121 272.216 78.4169 271.72 78.3896 271.223C78.3623 270.725 78.2042 270.243 77.9307 269.825C77.6572 269.408 77.2778 269.069 76.8311 268.842C76.3841 268.615 75.8845 268.507 75.3828 268.531L62.6289 269.145L53.5664 260.229C53.2098 259.878 52.7666 259.626 52.2812 259.498C51.7957 259.37 51.2841 259.37 50.7988 259.499C50.3137 259.628 49.8706 259.881 49.5146 260.232C49.1588 260.584 48.9025 261.022 48.7705 261.503L45.418 273.717L34.0635 279.508C33.6166 279.736 33.2377 280.077 32.9648 280.495C32.6921 280.914 32.5349 281.396 32.5088 281.894C32.4827 282.391 32.5881 282.887 32.8154 283.331C33.0429 283.775 33.3851 284.154 33.8057 284.427L44.4854 291.358L46.5293 303.854C46.6095 304.345 46.818 304.807 47.1338 305.193C20.4159 300.506 6.25125e-05 282.892 0 255.466V215.375C6.56109 220.83 15.2687 219.998 18.3838 217.632C14.8311 220.332 11.4475 230.428 18.0674 238.776C24.6876 247.125 33.4509 243.811 37.0039 241.111C46.0015 234.275 49.4275 222.92 50.5645 212.994L69.3447 198.608C79.4099 199.96 91.4005 199.489 100.34 192.697C103.893 189.998 109.345 182.51 102.726 174.162C96.1052 165.814 85.2726 166.518 81.7197 169.218C85.2725 166.518 88.6565 156.422 82.0361 148.073C75.4158 139.725 66.6524 143.039 63.0996 145.738C54.2028 152.498 50.7534 163.677 49.5781 173.522L31.6797 188.37C21.519 186.879 9.18948 187.148 0 193.977V128.905C2.7494 130.967 5.8433 132.579 9.17285 133.645C9.65708 132.693 10.0803 131.712 10.4395 130.707C10.6548 130.104 10.851 129.482 11.0225 128.855C13.7624 118.842 10.0144 108.561 2.34082 102.496C2.75506 100.367 3.22295 98.2581 3.74219 96.1689C4.46399 96.6376 5.16829 97.135 5.85059 97.6641C9.07636 100.165 11.7741 103.281 13.7871 106.832C15.8182 110.371 17.1275 114.278 17.6387 118.326C18.1498 122.374 17.8533 126.484 16.7656 130.417C16.5557 131.184 16.3134 131.951 16.0479 132.695C15.7823 133.44 15.4794 134.194 15.1523 134.922C21.7066 135.663 28.3276 134.301 34.0576 131.035C39.7876 127.769 44.3305 122.766 47.0303 116.749C45.4442 116.564 43.8737 116.259 42.334 115.836C38.3934 114.771 34.7027 112.934 31.4766 110.434C28.2504 107.933 25.5518 104.817 23.5381 101.268C21.5066 97.7277 20.1974 93.8195 19.6865 89.7705C19.1757 85.7215 19.4739 81.611 20.5625 77.6777C20.9836 76.1379 21.5211 74.6321 22.1709 73.1738C18.6172 72.7723 15.0444 72.989 11.6045 73.792C23.6186 47.7457 44.2012 26.4655 69.7383 13.5635C68.3402 16.2605 67.6259 19.292 67.29 22.1025L58.5049 29.3896C53.479 28.653 47.3717 28.793 42.8535 32.2256C41.1106 33.5502 38.4356 37.2245 41.6826 41.3193C44.93 45.4141 50.2438 45.068 51.9873 43.7441C50.2447 45.0691 48.5849 50.0223 51.832 54.1172C55.0792 58.2118 59.3777 56.5868 61.1211 55.2627C65.535 51.9091 67.2127 46.3379 67.7705 41.4688L76.9854 34.4102C81.9227 35.0729 87.8042 34.844 92.1895 31.5127C93.9323 30.1885 96.6079 26.5153 93.3604 22.4199C90.1127 18.3249 84.7987 18.67 83.0557 19.9941C84.7985 18.6697 86.4583 13.7173 83.2109 9.62207C82.7609 9.05467 82.2893 8.59912 81.8086 8.23535C95.8119 2.91332 111.002 3.04881e-05 126.872 0ZM192.736 277.255C191.459 282.856 192.331 288.732 195.178 293.722C198.025 298.711 202.642 302.452 208.114 304.203C208.472 303.501 208.784 302.776 209.049 302.034C209.208 301.589 209.353 301.13 209.479 300.667C212.18 290.797 206.346 280.574 196.475 277.875C195.253 277.542 194 277.334 192.736 277.255ZM222.102 260.496C221.527 261.624 221.069 262.809 220.735 264.03C218.035 273.898 223.87 284.123 233.74 286.822C234.961 287.157 236.214 287.365 237.478 287.445C238.755 281.845 237.884 275.968 235.037 270.979C232.19 265.989 227.574 262.248 222.102 260.496ZM90.0293 216.882C101.164 213.797 110.795 213.478 111.542 216.17C112.287 218.862 103.865 223.546 92.7305 226.631C81.5964 229.716 71.965 230.035 71.2178 227.344C70.4721 224.652 78.8946 219.967 90.0293 216.882ZM227.964 216.643C229.009 216.643 229.858 217.428 229.858 218.396C229.858 219.363 229.009 220.147 227.964 220.147C226.918 220.147 226.071 219.363 226.07 218.396C226.07 217.428 226.918 216.643 227.964 216.643ZM240.464 213.916C241.509 213.917 242.357 214.701 242.357 215.669C242.357 216.636 241.509 217.42 240.464 217.421C239.418 217.421 238.57 216.637 238.569 215.669C238.569 214.701 239.418 213.916 240.464 213.916ZM251.448 206.516C252.494 206.516 253.342 207.301 253.342 208.269C253.342 209.236 252.494 210.021 251.448 210.021C250.403 210.021 249.555 209.236 249.555 208.269C249.555 207.301 250.402 206.516 251.448 206.516ZM160.915 68.8496C158.065 62.0752 148.297 50.2351 132.037 57.0762C115.776 63.9185 112.331 81.3193 115.181 88.0928C112.331 81.3193 97.4819 71.6157 81.2207 78.457C64.9596 85.2994 66.5973 100.562 69.4473 107.336C84.3903 142.847 140.651 149.05 140.838 149.071C140.838 149.071 175.881 104.42 160.915 68.8496ZM210.336 110.361C227.319 105.656 242.009 105.169 243.146 109.274C244.283 113.38 231.437 120.523 214.455 125.229C197.473 129.934 182.784 130.421 181.646 126.315C180.508 122.21 193.353 115.067 210.336 110.361ZM28.1133 74.458C27.3354 75.9859 26.7156 77.5894 26.2637 79.2432C22.6073 92.6059 30.5076 106.452 43.874 110.107C45.5278 110.56 47.2243 110.843 48.9355 110.951C50.6653 103.367 49.4863 95.4094 45.6309 88.6523C41.7754 81.8954 35.5239 76.83 28.1133 74.458ZM132.358 22.0957C134.227 22.0957 135.741 23.4974 135.741 25.2266C135.741 26.9557 134.227 28.3574 132.358 28.3574C130.49 28.357 128.976 26.9554 128.976 25.2266C128.976 23.4977 130.49 22.0961 132.358 22.0957ZM154.687 17.2266C156.555 17.2267 158.069 18.6284 158.069 20.3574C158.069 22.0865 156.555 23.4881 154.687 23.4883C152.818 23.488 151.304 22.0864 151.304 20.3574C151.304 18.6285 152.818 17.2269 154.687 17.2266ZM171.022 7.88672C172.696 8.50716 174.353 9.16153 175.993 9.84961C175.497 10.1145 174.922 10.2695 174.308 10.2695C172.718 10.2692 171.385 9.25439 171.022 7.88672Z" fill="white"/>
</svg>
