<svg width="101" height="65" viewBox="0 0 101 65" fill="none" xmlns="http://www.w3.org/2000/svg">
<g clip-path="url(#clip0_2503_483)">
<rect width="101" height="65" fill="white"/>
<rect width="26.2858" height="26.2858" transform="matrix(-1 0 0 1 108.183 20.123)" fill="white"/>
<rect width="26.2858" height="26.2858" transform="translate(12.2668 20.123)" fill="white"/>
<path d="M100.541 29.3072C100.541 25.7688 97.6721 22.9004 94.1337 22.9004V22.9004C90.5953 22.9004 87.7269 25.7688 87.7269 29.3072V36.0142H100.541V29.3072Z" fill="#4EA177"/>
<path d="M93.8733 25.7833C94.6945 26.1288 94.8684 27.0076 94.7245 27.3496C94.8684 27.0076 95.6183 26.5175 96.4394 26.863C97.2605 27.2085 97.1779 27.9793 97.0339 28.3213C96.2781 30.1176 93.4288 30.4289 93.4288 30.4289C93.4288 30.4289 91.6592 28.1741 92.415 26.3779C92.5589 26.0358 93.0522 25.4378 93.8733 25.7833Z" fill="white"/>
<path d="M94.2939 32.7598H93.4898V37.6311H94.2939V32.7598Z" fill="white"/>
<path d="M94.2924 35.9449C94.2924 37.2876 95.6909 38.3761 97.4162 38.3761C99.1414 38.3761 100.54 37.2876 100.54 35.9449C100.54 34.6022 99.1414 33.5137 97.4162 33.5137C95.6909 33.5137 94.2924 34.6022 94.2924 35.9449Z" fill="#4EA177"/>
<path d="M93.4901 32.7589C93.4901 32.9461 93.67 33.0979 93.892 33.0979C94.114 33.0979 94.2939 32.9461 94.2939 32.7589C94.2939 32.5717 94.114 32.4199 93.892 32.4199C93.67 32.4199 93.4901 32.5717 93.4901 32.7589Z" fill="white"/>
<path d="M87.7269 35.96C87.7269 37.2948 89.0172 38.377 90.6088 38.377C92.2005 38.377 93.4907 37.2948 93.4907 35.96C93.4907 34.6251 92.2005 33.543 90.6088 33.543C89.0172 33.543 87.7269 34.6251 87.7269 35.96Z" fill="#4EA177"/>
<path d="M19.9087 29.3072C19.9087 25.7688 22.7771 22.9004 26.3155 22.9004V22.9004C29.8539 22.9004 32.7223 25.7688 32.7223 29.3072V36.0142H19.9087V29.3072Z" fill="#4EA177"/>
<path d="M26.5761 25.7833C25.755 26.1288 25.5811 27.0076 25.725 27.3496C25.5811 27.0076 24.8312 26.5175 24.0101 26.863C23.1889 27.2085 23.2716 27.9793 23.4155 28.3213C24.1713 30.1176 27.0206 30.4289 27.0206 30.4289C27.0206 30.4289 28.7902 28.1741 28.0344 26.3779C27.8905 26.0358 27.3973 25.4378 26.5761 25.7833Z" fill="white"/>
<path d="M26.1555 32.7598H26.9596V37.6311H26.1555V32.7598Z" fill="white"/>
<path d="M26.1571 35.9449C26.1571 37.2876 24.7585 38.3761 23.0333 38.3761C21.308 38.3761 19.9094 37.2876 19.9094 35.9449C19.9094 34.6022 21.308 33.5137 23.0333 33.5137C24.7585 33.5137 26.1571 34.6022 26.1571 35.9449Z" fill="#4EA177"/>
<path d="M26.9594 32.7589C26.9594 32.9461 26.7794 33.0979 26.5575 33.0979C26.3355 33.0979 26.1555 32.9461 26.1555 32.7589C26.1555 32.5717 26.3355 32.4199 26.5575 32.4199C26.7794 32.4199 26.9594 32.5717 26.9594 32.7589Z" fill="white"/>
<path d="M32.7225 35.96C32.7225 37.2948 31.4323 38.377 29.8406 38.377C28.249 38.377 26.9587 37.2948 26.9587 35.96C26.9587 34.6251 28.249 33.543 29.8406 33.543C31.4323 33.543 32.7225 34.6251 32.7225 35.96Z" fill="#4EA177"/>
<path d="M73.7958 14.6895C74.6008 14.6895 75.2257 14.8271 75.6706 15.1025C76.1154 15.3779 76.3379 15.9181 76.3379 16.7231C76.3379 16.8502 76.2955 17.7823 76.2108 19.5194C76.1472 21.2565 76.1154 22.5593 76.1154 23.4279V24.826C77.45 23.555 78.9647 22.9195 80.6594 22.9195C82.0999 22.9195 83.2862 23.3325 84.2183 24.1587C85.1504 24.9849 85.6165 26.1606 85.6165 27.6859C85.6165 27.7282 85.5953 28.4909 85.5529 29.9737C85.5317 31.4566 85.5211 32.5794 85.5211 33.342C85.5211 35.1638 85.7012 36.7103 86.0613 37.9813C85.1504 38.2567 84.2289 38.3944 83.2968 38.3944C81.6021 38.3944 80.7547 37.7483 80.7547 36.456C80.7547 35.6934 80.7865 34.2953 80.8501 32.2616C80.9136 30.2068 80.9454 28.9675 80.9454 28.5438C80.9454 27.6753 80.7653 27.0292 80.4052 26.6055C80.0663 26.1606 79.6214 25.9382 79.0706 25.9382C78.1809 25.9382 77.1958 26.4572 76.1154 27.4952C76.1578 30.2068 76.179 32.1663 76.179 33.3738C76.179 35.238 76.2319 36.8691 76.3379 38.2673C75.6388 38.3308 75.0139 38.3626 74.4631 38.3626C72.3447 38.3626 71.2855 37.8542 71.2855 36.8374C71.2855 36.7526 71.3067 36.0218 71.349 34.6448C71.4126 33.2467 71.4444 31.7956 71.4444 30.2915V22.5381C71.4444 19.5088 71.3702 17.0303 71.2219 15.1025C72.0269 14.8271 72.8849 14.6895 73.7958 14.6895Z" fill="#4EA177"/>
<path d="M54.4875 23.5237C55.3561 23.2483 56.1823 23.1106 56.9661 23.1106C58.5125 23.1106 59.3917 23.7355 59.6035 24.9854C60.9805 23.6084 62.5481 22.9199 64.3063 22.9199C65.7469 22.9199 66.9332 23.333 67.8653 24.1592C68.7974 24.9854 69.2634 26.1611 69.2634 27.6863C69.2634 27.7287 69.2422 28.4913 69.1999 29.9742C69.1787 31.4571 69.1681 32.5798 69.1681 33.3425C69.1681 35.1643 69.3482 36.7107 69.7083 37.9818C68.7974 38.2572 67.8759 38.3949 66.9438 38.3949C65.249 38.3949 64.4017 37.7487 64.4017 36.4565C64.4017 35.6939 64.4335 34.2957 64.497 32.2621C64.5606 30.2072 64.5923 28.968 64.5923 28.5443C64.5923 27.6757 64.4123 27.0296 64.0521 26.6059C63.7132 26.1611 63.2683 25.9386 62.7175 25.9386C61.8278 25.9386 60.8428 26.4577 59.7624 27.4957C59.8047 30.2072 59.8259 32.1668 59.8259 33.3742C59.8259 35.2384 59.8789 36.8696 59.9848 38.2678C59.2857 38.3313 58.6608 38.3631 58.11 38.3631C55.9916 38.3631 54.9324 37.8547 54.9324 36.8378C54.9324 36.7531 54.9536 36.0117 54.996 34.6135C55.0595 33.2154 55.0913 31.7643 55.0913 30.2602C55.0913 26.8072 54.89 24.5617 54.4875 23.5237Z" fill="#4EA177"/>
<path d="M50.1077 21.7761C49.3027 21.7761 48.6142 21.5007 48.0422 20.9499C47.4915 20.378 47.2161 19.6577 47.2161 18.7892C47.2161 17.963 47.5126 17.2639 48.1058 16.6919C48.6989 16.12 49.3874 15.834 50.1712 15.834C50.955 15.834 51.6223 16.12 52.1731 16.6919C52.7451 17.2639 53.0311 17.963 53.0311 18.7892C53.0311 19.6365 52.7345 20.3462 52.1414 20.9182C51.5482 21.4901 50.8703 21.7761 50.1077 21.7761ZM50.1712 23.1107C50.9762 23.1107 51.6012 23.2484 52.046 23.5238C52.4909 23.7992 52.7133 24.3394 52.7133 25.1444C52.7133 25.2715 52.671 26.2036 52.5862 27.9407C52.5227 29.6777 52.4909 30.9806 52.4909 31.8491C52.4909 34.8572 52.671 36.9015 53.0311 37.9819C52.1414 38.2573 51.2622 38.395 50.3937 38.395C49.398 38.395 48.6989 38.2255 48.2965 37.8866C47.9151 37.5264 47.7245 37.0074 47.7245 36.3295C47.7245 35.9906 47.7351 35.1962 47.7563 33.9463C47.7986 32.6965 47.8198 31.7008 47.8198 30.9594C47.8198 27.9301 47.7457 25.4515 47.5974 23.5238C48.4024 23.2484 49.2603 23.1107 50.1712 23.1107Z" fill="#4EA177"/>
<path d="M42.9406 28.0027C42.7711 27.346 42.4745 26.8375 42.0509 26.4774C41.6272 26.1173 41.1611 25.9372 40.6527 25.9372C40.1655 25.9372 39.7524 26.0643 39.4134 26.3185C39.0745 26.5727 38.905 26.9435 38.905 27.4307C38.905 27.9391 39.1486 28.3416 39.6359 28.6382C40.1443 28.9348 40.748 29.1784 41.4471 29.369C42.1674 29.5385 42.877 29.7609 43.5761 30.0363C44.2964 30.2905 44.9001 30.7248 45.3873 31.3391C45.8958 31.9535 46.15 32.7373 46.15 33.6906C46.15 35.3006 45.5039 36.5292 44.2116 37.3766C42.9406 38.2028 41.4365 38.6159 39.6994 38.6159C39.1486 38.6159 38.6084 38.5841 38.0788 38.5205C37.5492 38.4782 36.9349 38.3828 36.2358 38.2346C35.5579 38.0651 35.0072 37.7897 34.5835 37.4084C34.181 37.0059 33.9797 36.5186 33.9797 35.9467C33.9797 34.8027 34.8377 33.913 36.5536 33.2775C36.7654 34.0401 37.1679 34.6121 37.7611 34.9934C38.3542 35.3747 38.9792 35.5654 39.6359 35.5654C41.0552 35.5654 41.7649 35.0569 41.7649 34.0401C41.7649 33.5529 41.3836 33.161 40.6209 32.8644C39.8795 32.5466 39.0639 32.2924 38.1742 32.1018C37.2844 31.8899 36.4583 31.4345 35.6956 30.7354C34.9542 30.0151 34.5835 29.0619 34.5835 27.8756C34.5835 26.3715 35.219 25.164 36.49 24.2531C37.7823 23.3422 39.2334 22.8867 40.8434 22.8867C41.5848 22.8867 42.3262 22.9715 43.0677 23.1409C43.8303 23.2892 44.5188 23.5964 45.1331 24.0624C45.7475 24.5073 46.0546 25.0581 46.0546 25.7148C46.0546 26.2868 45.7898 26.7846 45.2602 27.2083C44.7518 27.6108 43.9786 27.8756 42.9406 28.0027Z" fill="#4EA177"/>
<path d="M16.044 32.675C17.654 33.4164 18.459 34.285 18.459 35.2806C18.459 35.895 18.1942 36.4352 17.6646 36.9012C17.1562 37.3672 16.5101 37.7168 15.7263 37.9498C14.9636 38.1828 14.2328 38.3523 13.5337 38.4582C12.8346 38.5641 12.1991 38.6171 11.6271 38.6171C10.2502 38.6171 8.93677 38.437 7.68691 38.0769C6.43705 37.6956 5.24015 37.113 4.09622 36.3292C2.97346 35.5242 2.07314 34.3909 1.39525 32.9292C0.717363 31.4463 0.378418 29.7198 0.378418 27.7497C0.378418 24.3603 1.38466 21.7122 3.39714 19.8057C5.40963 17.8779 8.14237 16.9141 11.5954 16.9141C13.4384 16.9141 14.9848 17.253 16.2347 17.9309C17.5057 18.5876 18.1412 19.4032 18.1412 20.3777C18.1412 21.1191 17.8341 21.7228 17.2197 22.1889C16.6054 22.6549 15.7898 22.9515 14.773 23.0786C14.4128 22.1042 13.8409 21.3733 13.0571 20.8861C12.2733 20.3777 11.4365 20.1234 10.5468 20.1234C9.08506 20.1234 7.87757 20.7907 6.92428 22.1253C5.99219 23.4599 5.52614 25.1229 5.52614 27.1142C5.52614 29.4656 6.00278 31.4357 6.95606 33.0245C7.93053 34.6133 9.28631 35.4077 11.0234 35.4077C11.9979 35.4077 12.93 35.1853 13.8197 34.7404C14.7306 34.2956 15.472 33.6071 16.044 32.675Z" fill="#4EA177"/>
<path d="M99.6502 46.2526V47.061C99.3535 46.8854 98.972 46.7976 98.5057 46.7976C98.2938 46.7976 98.1242 46.846 97.997 46.9429C97.8759 47.0398 97.8154 47.167 97.8154 47.3244C97.8154 47.3668 97.8184 47.4092 97.8245 47.4516C97.8366 47.4879 97.8547 47.5273 97.879 47.5697C97.9032 47.606 97.9244 47.6393 97.9425 47.6696C97.9668 47.6938 98.0031 47.721 98.0515 47.7513C98.1 47.7816 98.1363 47.8088 98.1605 47.8331C98.1908 47.8512 98.2362 47.8755 98.2968 47.9057C98.3634 47.936 98.4118 47.9602 98.4421 47.9784C98.4724 47.9905 98.5239 48.0147 98.5965 48.0511C98.6753 48.0813 98.7298 48.1025 98.76 48.1147C99.1173 48.2721 99.3959 48.4507 99.5957 48.6506C99.8016 48.8443 99.9045 49.1047 99.9045 49.4317C99.9045 49.8435 99.7592 50.1675 99.4685 50.4037C99.1779 50.6338 98.7843 50.7488 98.2877 50.7488C97.7427 50.7488 97.2885 50.658 96.9252 50.4763V49.6316C97.3491 49.892 97.7881 50.0222 98.2423 50.0222C98.4785 50.0222 98.6601 49.9737 98.7873 49.8768C98.9205 49.7799 98.9871 49.6528 98.9871 49.4953C98.9871 49.3621 98.9356 49.244 98.8327 49.1411C98.7298 49.0321 98.6238 48.9533 98.5148 48.9049C98.4118 48.8504 98.2332 48.7687 97.9789 48.6597C97.2583 48.3629 96.8979 47.9269 96.8979 47.3517C96.8979 46.9459 97.0493 46.628 97.3521 46.3979C97.6549 46.1678 98.0334 46.0527 98.4875 46.0527C98.9841 46.0527 99.3716 46.1193 99.6502 46.2526Z" fill="#6132CC"/>
<path d="M95.1141 48.0686V47.9051C95.102 47.5599 95.0081 47.2874 94.8325 47.0876C94.6569 46.8817 94.4056 46.7787 94.0786 46.7787C93.7758 46.7787 93.5155 46.8907 93.2975 47.1148C93.0795 47.3328 92.9432 47.6507 92.8887 48.0686H95.1141ZM95.6864 49.6581V50.4575C95.3473 50.6512 94.8992 50.7481 94.342 50.7481C93.6275 50.7481 93.0583 50.5332 92.6344 50.1032C92.2105 49.6733 91.9985 49.1101 91.9985 48.4137C91.9985 47.6749 92.1923 47.0966 92.5799 46.6788C92.9674 46.2549 93.461 46.043 94.0605 46.043C94.6478 46.043 95.1141 46.2277 95.4593 46.5971C95.8045 46.9604 95.977 47.4872 95.977 48.1776C95.977 48.3653 95.9589 48.5621 95.9225 48.768H92.8978C92.9583 49.1676 93.1279 49.4734 93.4065 49.6854C93.685 49.8973 94.0362 50.0033 94.4601 50.0033C94.9506 50.0033 95.3594 49.8882 95.6864 49.6581Z" fill="#6132CC"/>
<path d="M90.4814 44.3359L90.9901 44.7174C90.7781 45.1655 90.4481 45.3896 90 45.3896C89.8244 45.3896 89.6124 45.329 89.3641 45.2079C89.1219 45.0808 88.9524 45.0172 88.8555 45.0172C88.7162 45.0172 88.5981 45.0505 88.5012 45.1171C88.4104 45.1837 88.3165 45.2897 88.2196 45.435L87.7746 45.0263C87.8593 44.8385 87.9865 44.6811 88.1561 44.5539C88.3317 44.4207 88.5224 44.3541 88.7283 44.3541C88.9221 44.3541 89.1461 44.4177 89.4005 44.5449C89.6548 44.666 89.8395 44.7265 89.9546 44.7265C90.1786 44.7265 90.3542 44.5963 90.4814 44.3359ZM90.1453 48.6505H89.455C89.1159 48.6505 88.8585 48.7171 88.6829 48.8504C88.5133 48.9836 88.4286 49.1531 88.4286 49.359C88.4286 49.571 88.4952 49.7375 88.6284 49.8586C88.7616 49.9797 88.9554 50.0403 89.2097 50.0403C89.5004 50.0403 89.7275 49.9615 89.891 49.8041C90.0605 49.6406 90.1453 49.4287 90.1453 49.1683V48.6505ZM87.829 47.1972V46.3343C88.1863 46.1284 88.6587 46.0254 89.246 46.0254C90.4511 46.0254 91.0536 46.6098 91.0536 47.7785V50.7034H90.1726V50.1584C89.9364 50.5459 89.5216 50.7397 88.9281 50.7397C88.4921 50.7397 88.1409 50.6155 87.8745 50.3673C87.6141 50.1129 87.4839 49.792 87.4839 49.4044C87.4839 48.9624 87.6504 48.6202 87.9835 48.378C88.3165 48.1297 88.7828 48.0056 89.3823 48.0056H90.1453V47.7422C90.1453 47.4273 90.0696 47.1911 89.9182 47.0337C89.7668 46.8702 89.5155 46.7884 89.1643 46.7884C88.6738 46.7884 88.2287 46.9247 87.829 47.1972Z" fill="#6132CC"/>
<path d="M86.6803 44.8361V45.7535C86.4139 45.6082 86.1716 45.5083 85.9536 45.4538C85.7417 45.3932 85.4692 45.3629 85.1361 45.3629C84.5245 45.3629 84.0128 45.5718 83.6011 45.9897C83.1953 46.4014 82.9925 46.9495 82.9925 47.6338C82.9925 48.3301 83.1953 48.8842 83.6011 49.296C84.0068 49.7078 84.5427 49.9137 85.2088 49.9137C85.7962 49.9137 86.2897 49.7623 86.6894 49.4595V50.4042C86.3139 50.6524 85.7932 50.7766 85.1271 50.7766C84.2127 50.7766 83.4648 50.492 82.8835 49.9228C82.3021 49.3535 82.0115 48.5905 82.0115 47.6338C82.0115 46.7073 82.3021 45.9533 82.8835 45.372C83.4709 44.7907 84.2127 44.5 85.1089 44.5C85.7629 44.5 86.2867 44.612 86.6803 44.8361Z" fill="#6132CC"/>
<path d="M77.8775 48.6505H77.1871C76.848 48.6505 76.5907 48.7171 76.4151 48.8503C76.2455 48.9835 76.1607 49.1531 76.1607 49.359C76.1607 49.5709 76.2273 49.7374 76.3606 49.8586C76.4938 49.9797 76.6876 50.0402 76.9419 50.0402C77.2326 50.0402 77.4596 49.9615 77.6231 49.8041C77.7927 49.6406 77.8775 49.4286 77.8775 49.1682V48.6505ZM75.5612 47.1971V46.3342C75.9185 46.1283 76.3908 46.0254 76.9782 46.0254C78.1833 46.0254 78.7858 46.6098 78.7858 47.7785V50.7033H77.9047V50.1583C77.6686 50.5459 77.2538 50.7396 76.6603 50.7396C76.2243 50.7396 75.8731 50.6155 75.6066 50.3672C75.3463 50.1129 75.2161 49.7919 75.2161 49.4044C75.2161 48.9623 75.3826 48.6202 75.7156 48.378C76.0487 48.1297 76.515 48.0056 77.1145 48.0056H77.8775V47.7421C77.8775 47.4273 77.8018 47.1911 77.6504 47.0336C77.499 46.8701 77.2477 46.7884 76.8965 46.7884C76.406 46.7884 75.9609 46.9246 75.5612 47.1971Z" fill="#6132CC"/>
<path d="M73.2644 46.0982V46.9066C73.4885 46.3373 73.8912 46.0527 74.4725 46.0527C74.5573 46.0527 74.6512 46.0618 74.7541 46.08V46.952C74.6269 46.8975 74.4846 46.8702 74.3272 46.8702C74.0184 46.8702 73.764 47.0065 73.5642 47.279C73.3644 47.5515 73.2644 47.8755 73.2644 48.2509V50.7034H72.3743V46.0982H73.2644Z" fill="#6132CC"/>
<path d="M70.2666 48.6505H69.5763C69.2372 48.6505 68.9798 48.7171 68.8042 48.8503C68.6347 48.9835 68.5499 49.1531 68.5499 49.359C68.5499 49.5709 68.6165 49.7374 68.7497 49.8586C68.8829 49.9797 69.0767 50.0402 69.3311 50.0402C69.6217 50.0402 69.8488 49.9615 70.0123 49.8041C70.1819 49.6406 70.2666 49.4286 70.2666 49.1682V48.6505ZM67.9504 47.1971V46.3342C68.3077 46.1283 68.78 46.0254 69.3674 46.0254C70.5724 46.0254 71.175 46.6098 71.175 47.7785V50.7033H70.2939V50.1583C70.0577 50.5459 69.6429 50.7396 69.0495 50.7396C68.6135 50.7396 68.2622 50.6155 67.9958 50.3672C67.7354 50.1129 67.6052 49.7919 67.6052 49.4044C67.6052 48.9623 67.7717 48.6202 68.1048 48.378C68.4379 48.1297 68.9041 48.0056 69.5036 48.0056H70.2666V47.7421C70.2666 47.4273 70.1909 47.1911 70.0396 47.0336C69.8882 46.8701 69.6369 46.7884 69.2856 46.7884C68.7951 46.7884 68.3501 46.9246 67.9504 47.1971Z" fill="#6132CC"/>
<path d="M64.698 49.9864C65.0553 49.9864 65.349 49.8471 65.5791 49.5686C65.8092 49.284 65.9243 48.8873 65.9243 48.3787C65.9243 47.9003 65.8122 47.5218 65.5882 47.2432C65.3641 46.9586 65.0795 46.8163 64.7343 46.8163C64.3892 46.8163 64.0894 46.9435 63.8351 47.1978C63.5868 47.4461 63.4627 47.8427 63.4627 48.3877C63.4627 48.9206 63.5868 49.3203 63.8351 49.5867C64.0894 49.8532 64.3771 49.9864 64.698 49.9864ZM63.4627 46.0987V46.8072C63.7776 46.2925 64.2499 46.0352 64.8797 46.0352C65.4852 46.0352 65.9636 46.2562 66.3148 46.6982C66.6661 47.1342 66.8417 47.6914 66.8417 48.3696C66.8417 49.066 66.66 49.6412 66.2967 50.0954C65.9394 50.5435 65.461 50.7676 64.8615 50.7676C64.2499 50.7676 63.7836 50.5132 63.4627 50.0046V52.4662H62.5725V46.0987H63.4627Z" fill="#6132CC"/>
<path d="M58.147 50.7032V44.2812H59.0462V50.7032H58.147Z" fill="#6132CC"/>
<path d="M56.1996 48.0686V47.9051C56.1875 47.5599 56.0936 47.2874 55.918 47.0876C55.7424 46.8817 55.4911 46.7787 55.1641 46.7787C54.8613 46.7787 54.6009 46.8907 54.3829 47.1148C54.1649 47.3328 54.0287 47.6507 53.9742 48.0686H56.1996ZM56.7718 49.6581V50.4575C56.4327 50.6512 55.9846 50.7481 55.4275 50.7481C54.7129 50.7481 54.1437 50.5332 53.7198 50.1032C53.2959 49.6733 53.084 49.1101 53.084 48.4137C53.084 47.6749 53.2778 47.0966 53.6653 46.6788C54.0529 46.2549 54.5464 46.043 55.1459 46.043C55.7333 46.043 56.1996 46.2277 56.5447 46.5971C56.8899 46.9604 57.0625 47.4872 57.0625 48.1776C57.0625 48.3653 57.0443 48.5621 57.008 48.768H53.9832C54.0438 49.1676 54.2133 49.4734 54.4919 49.6854C54.7705 49.8973 55.1217 50.0033 55.5456 50.0033C56.0361 50.0033 56.4448 49.8882 56.7718 49.6581Z" fill="#6132CC"/>
<path d="M51.0944 46.7874V49.3216C51.0944 49.7637 51.3063 49.9847 51.7302 49.9847C51.9785 49.9847 52.1874 49.9181 52.357 49.7849V50.5842C52.1571 50.6932 51.9119 50.7477 51.6212 50.7477C50.6705 50.7477 50.1951 50.2663 50.1951 49.3035V46.7874H49.4775V46.097H50.1951V44.9707H51.0944V46.097H52.3025V46.7874H51.0944Z" fill="#6132CC"/>
<path d="M46.7393 50.7857C46.0611 50.7857 45.5282 50.5647 45.1407 50.1227C44.7531 49.6806 44.5593 49.1205 44.5593 48.4422C44.5593 47.7519 44.7592 47.1797 45.1588 46.7255C45.5585 46.2653 46.0853 46.0352 46.7393 46.0352C47.4418 46.0352 47.9837 46.2592 48.3652 46.7073C48.7467 47.1494 48.9375 47.7156 48.9375 48.4059C48.9375 49.0962 48.7407 49.6655 48.3471 50.1136C47.9595 50.5617 47.4236 50.7857 46.7393 50.7857ZM46.7302 46.7891C46.3366 46.7891 46.0308 46.9465 45.8128 47.2614C45.5948 47.5702 45.4858 47.9548 45.4858 48.415C45.4858 48.8692 45.5979 49.2537 45.8219 49.5686C46.046 49.8774 46.3518 50.0318 46.7393 50.0318C47.1511 50.0318 47.463 49.8804 47.6749 49.5777C47.8929 49.2749 48.0019 48.8904 48.0019 48.4241C48.0019 47.9457 47.899 47.5551 47.6931 47.2523C47.4872 46.9435 47.1662 46.7891 46.7302 46.7891Z" fill="#6132CC"/>
<path d="M42.577 44.5801H43.5126V50.7022H42.577V48.0227H39.8247V50.7022H38.8892V44.5801H39.8247V47.2142H42.577V44.5801Z" fill="#6132CC"/>
<path d="M34.7064 48.0686V47.9051C34.6943 47.5599 34.6004 47.2874 34.4248 47.0876C34.2492 46.8817 33.9979 46.7787 33.6709 46.7787C33.3681 46.7787 33.1077 46.8907 32.8897 47.1148C32.6717 47.3328 32.5355 47.6507 32.481 48.0686H34.7064ZM35.2787 49.6581V50.4575C34.9395 50.6512 34.4914 50.7481 33.9343 50.7481C33.2198 50.7481 32.6505 50.5332 32.2267 50.1032C31.8028 49.6733 31.5908 49.1101 31.5908 48.4137C31.5908 47.6749 31.7846 47.0966 32.1722 46.6788C32.5597 46.2549 33.0532 46.043 33.6527 46.043C34.2401 46.043 34.7064 46.2277 35.0516 46.5971C35.3967 46.9604 35.5693 47.4872 35.5693 48.1776C35.5693 48.3653 35.5512 48.5621 35.5148 48.768H32.4901C32.5506 49.1676 32.7202 49.4734 32.9987 49.6854C33.2773 49.8973 33.6285 50.0033 34.0524 50.0033C34.5429 50.0033 34.9517 49.8882 35.2787 49.6581Z" fill="#6132CC"/>
<path d="M27.6988 48.0686V47.9051C27.6867 47.5599 27.5929 47.2874 27.4173 47.0876C27.2416 46.8817 26.9903 46.7787 26.6633 46.7787C26.3606 46.7787 26.1002 46.8907 25.8822 47.1148C25.6642 47.3328 25.5279 47.6507 25.4734 48.0686H27.6988ZM28.2711 49.6581V50.4575C27.932 50.6512 27.4839 50.7481 26.9268 50.7481C26.2122 50.7481 25.643 50.5332 25.2191 50.1032C24.7952 49.6733 24.5833 49.1101 24.5833 48.4137C24.5833 47.6749 24.777 47.0966 25.1646 46.6788C25.5521 46.2549 26.0457 46.043 26.6452 46.043C27.2326 46.043 27.6988 46.2277 28.044 46.5971C28.3892 46.9604 28.5618 47.4872 28.5618 48.1776C28.5618 48.3653 28.5436 48.5621 28.5073 48.768H25.4825C25.5431 49.1676 25.7126 49.4734 25.9912 49.6854C26.2697 49.8973 26.6209 50.0033 27.0448 50.0033C27.5353 50.0033 27.9441 49.8882 28.2711 49.6581Z" fill="#6132CC"/>
<path d="M20.7246 44.2812V46.8882C20.985 46.3189 21.4604 46.0343 22.1507 46.0343C22.5988 46.0343 22.9591 46.1736 23.2316 46.4522C23.5041 46.7307 23.6404 47.1183 23.6404 47.6148V50.7032H22.7502V47.7965C22.7502 47.4816 22.6685 47.2394 22.505 47.0698C22.3475 46.8942 22.1386 46.8064 21.8782 46.8064C21.5754 46.8064 21.306 46.9215 21.0698 47.1516C20.8397 47.3817 20.7246 47.7329 20.7246 48.2053V50.7032H19.8345V44.2812H20.7246Z" fill="#6132CC"/>
<path d="M16.2221 48.4227C16.2342 48.889 16.3765 49.2735 16.649 49.5763C16.9215 49.873 17.303 50.0214 17.7935 50.0214C18.1569 50.0214 18.496 49.9215 18.8109 49.7216V50.521C18.5141 50.7026 18.1357 50.7935 17.6754 50.7935C16.9548 50.7935 16.3795 50.5664 15.9496 50.1122C15.5197 49.658 15.3047 49.0918 15.3047 48.4136C15.3047 47.7536 15.5197 47.1904 15.9496 46.7241C16.3856 46.2518 16.973 46.0156 17.7118 46.0156C18.1114 46.0156 18.4778 46.1004 18.8109 46.27V47.0875C18.5141 46.8997 18.178 46.8059 17.8026 46.8059C17.3242 46.8059 16.9397 46.9573 16.649 47.26C16.3644 47.5628 16.2221 47.9504 16.2221 48.4227Z" fill="#6132CC"/>
<path d="M13.6481 48.0686V47.9051C13.6359 47.5599 13.5421 47.2874 13.3665 47.0876C13.1909 46.8817 12.9396 46.7787 12.6126 46.7787C12.3098 46.7787 12.0494 46.8907 11.8314 47.1148C11.6134 47.3328 11.4771 47.6507 11.4226 48.0686H13.6481ZM14.2203 49.6581V50.4575C13.8812 50.6512 13.4331 50.7481 12.876 50.7481C12.1614 50.7481 11.5922 50.5332 11.1683 50.1032C10.7444 49.6733 10.5325 49.1101 10.5325 48.4137C10.5325 47.6749 10.7262 47.0966 11.1138 46.6788C11.5014 46.2549 11.9949 46.043 12.5944 46.043C13.1818 46.043 13.6481 46.2277 13.9932 46.5971C14.3384 46.9604 14.511 47.4872 14.511 48.1776C14.511 48.3653 14.4928 48.5621 14.4565 48.768H11.4317C11.4923 49.1676 11.6618 49.4734 11.9404 49.6854C12.2189 49.8973 12.5702 50.0033 12.9941 50.0033C13.4846 50.0033 13.8933 49.8882 14.2203 49.6581Z" fill="#6132CC"/>
<path d="M8.59891 46.0982V46.9066C8.82296 46.3373 9.22566 46.0527 9.80699 46.0527C9.89177 46.0527 9.98563 46.0618 10.0886 46.08V46.952C9.96141 46.8975 9.8191 46.8702 9.66166 46.8702C9.35282 46.8702 9.09849 47.0065 8.89866 47.279C8.69882 47.5515 8.59891 47.8755 8.59891 48.2509V50.7034H7.70874V46.0982H8.59891Z" fill="#6132CC"/>
<path d="M6.66883 44.8361V45.7535C6.40239 45.6082 6.16017 45.5083 5.94217 45.4538C5.73022 45.3932 5.45772 45.3629 5.12467 45.3629C4.51306 45.3629 4.00136 45.5718 3.58958 45.9897C3.18386 46.4014 2.981 46.9495 2.981 47.6338C2.981 48.3301 3.18386 48.8842 3.58958 49.296C3.99531 49.7078 4.53122 49.9137 5.19733 49.9137C5.78472 49.9137 6.27825 49.7623 6.67792 49.4595V50.4042C6.30247 50.6524 5.78169 50.7766 5.11558 50.7766C4.20119 50.7766 3.45333 50.492 2.872 49.9228C2.29067 49.3535 2 48.5905 2 47.6338C2 46.7073 2.29067 45.9533 2.872 45.372C3.45939 44.7907 4.20119 44.5 5.09742 44.5C5.75142 44.5 6.27522 44.612 6.66883 44.8361Z" fill="#6132CC"/>
</g>
<defs>
<clipPath id="clip0_2503_483">
<rect width="101" height="65" fill="white"/>
</clipPath>
</defs>
</svg>
