<svg width="101" height="65" viewBox="0 0 101 65" fill="none" xmlns="http://www.w3.org/2000/svg">
<rect width="101" height="65" fill="white"/>
<path d="M73.7955 15.3398C74.6005 15.3398 75.2255 15.4775 75.6703 15.7529C76.1152 16.0283 76.3376 16.5685 76.3376 17.3735C76.3376 17.5006 76.2953 18.4327 76.2105 20.1698C76.147 21.9069 76.1152 23.2097 76.1152 24.0783V25.4764C77.4498 24.2054 78.9644 23.5698 80.6592 23.5698C82.0997 23.5698 83.286 23.9829 84.2181 24.8091C85.1502 25.6353 85.6162 26.811 85.6162 28.3362C85.6162 28.3786 85.595 29.1412 85.5527 30.6241C85.5315 32.107 85.5209 33.2298 85.5209 33.9924C85.5209 35.8142 85.701 37.3606 86.0611 38.6317C85.1502 38.9071 84.2287 39.0448 83.2966 39.0448C81.6019 39.0448 80.7545 38.3987 80.7545 37.1064C80.7545 36.3438 80.7863 34.9457 80.8498 32.912C80.9134 30.8571 80.9452 29.6179 80.9452 29.1942C80.9452 28.3257 80.7651 27.6795 80.405 27.2559C80.066 26.811 79.6211 26.5886 79.0704 26.5886C78.1806 26.5886 77.1956 27.1076 76.1152 28.1456C76.1576 30.8571 76.1787 32.8167 76.1787 34.0242C76.1787 35.8884 76.2317 37.5195 76.3376 38.9177C75.6386 38.9812 75.0136 39.013 74.4628 39.013C72.3444 39.013 71.2852 38.5046 71.2852 37.4878C71.2852 37.403 71.3064 36.6722 71.3488 35.2952C71.4123 33.8971 71.4441 32.4459 71.4441 30.9419V23.1885C71.4441 20.1592 71.37 17.6807 71.2217 15.7529C72.0267 15.4775 72.8846 15.3398 73.7955 15.3398Z" fill="#4EA177"/>
<path d="M54.4873 24.1721C55.3559 23.8967 56.182 23.759 56.9658 23.759C58.5123 23.759 59.3914 24.3839 59.6032 25.6338C60.9802 24.2568 62.5478 23.5684 64.3061 23.5684C65.7466 23.5684 66.9329 23.9814 67.865 24.8076C68.7971 25.6338 69.2632 26.8095 69.2632 28.3348C69.2632 28.3771 69.242 29.1398 69.1996 30.6226C69.1784 32.1055 69.1678 33.2283 69.1678 33.9909C69.1678 35.8127 69.3479 37.3592 69.708 38.6302C68.7971 38.9056 67.8756 39.0433 66.9435 39.0433C65.2488 39.0433 64.4014 38.3972 64.4014 37.105C64.4014 36.3423 64.4332 34.9442 64.4968 32.9105C64.5603 30.8557 64.5921 29.6164 64.5921 29.1927C64.5921 28.3242 64.412 27.6781 64.0519 27.2544C63.7129 26.8095 63.2681 26.5871 62.7173 26.5871C61.8276 26.5871 60.8425 27.1061 59.7621 28.1441C59.8045 30.8557 59.8257 32.8152 59.8257 34.0227C59.8257 35.8869 59.8786 37.518 59.9846 38.9162C59.2855 38.9797 58.6606 39.0115 58.1098 39.0115C55.9914 39.0115 54.9322 38.5031 54.9322 37.4863C54.9322 37.4015 54.9534 36.6601 54.9957 35.2619C55.0593 33.8638 55.091 32.4127 55.091 30.9086C55.091 27.4556 54.8898 25.2101 54.4873 24.1721Z" fill="#4EA177"/>
<path d="M50.1074 22.4265C49.3024 22.4265 48.614 22.1511 48.042 21.6003C47.4912 21.0283 47.2158 20.3081 47.2158 19.4395C47.2158 18.6134 47.5124 17.9143 48.1056 17.3423C48.6987 16.7704 49.3872 16.4844 50.171 16.4844C50.9548 16.4844 51.6221 16.7704 52.1729 17.3423C52.7449 17.9143 53.0308 18.6134 53.0308 19.4395C53.0308 20.2869 52.7343 20.9966 52.1411 21.5685C51.548 22.1405 50.8701 22.4265 50.1074 22.4265ZM50.171 23.7611C50.976 23.7611 51.6009 23.8988 52.0458 24.1742C52.4906 24.4496 52.7131 24.9898 52.7131 25.7948C52.7131 25.9219 52.6707 26.854 52.586 28.5911C52.5224 30.3281 52.4906 31.631 52.4906 32.4995C52.4906 35.5076 52.6707 37.5519 53.0308 38.6323C52.1411 38.9077 51.262 39.0454 50.3934 39.0454C49.3978 39.0454 48.6987 38.8759 48.2962 38.537C47.9149 38.1768 47.7242 37.6578 47.7242 36.9799C47.7242 36.641 47.7348 35.8466 47.756 34.5967C47.7984 33.3469 47.8196 32.3512 47.8196 31.6098C47.8196 28.5805 47.7454 26.1019 47.5971 24.1742C48.4021 23.8988 49.2601 23.7611 50.171 23.7611Z" fill="#4EA177"/>
<path d="M42.9403 28.655C42.7709 27.9983 42.4743 27.4899 42.0506 27.1298C41.6269 26.7696 41.1609 26.5896 40.6525 26.5896C40.1652 26.5896 39.7521 26.7167 39.4132 26.9709C39.0743 27.2251 38.9048 27.5958 38.9048 28.083C38.9048 28.5915 39.1484 28.994 39.6356 29.2905C40.144 29.5871 40.7478 29.8307 41.4469 30.0214C42.1671 30.1908 42.8768 30.4133 43.5759 30.6887C44.2961 30.9429 44.8999 31.3772 45.3871 31.9915C45.8955 32.6058 46.1497 33.3896 46.1497 34.3429C46.1497 35.9529 45.5036 37.1816 44.2114 38.0289C42.9403 38.8551 41.4363 39.2682 39.6992 39.2682C39.1484 39.2682 38.6082 39.2364 38.0786 39.1729C37.549 39.1305 36.9347 39.0352 36.2356 38.8869C35.5577 38.7174 35.0069 38.442 34.5832 38.0607C34.1807 37.6582 33.9795 37.171 33.9795 36.599C33.9795 35.4551 34.8374 34.5654 36.5534 33.9298C36.7652 34.6925 37.1677 35.2644 37.7608 35.6457C38.354 36.0271 38.9789 36.2177 39.6356 36.2177C41.055 36.2177 41.7646 35.7093 41.7646 34.6925C41.7646 34.2052 41.3833 33.8133 40.6207 33.5167C39.8792 33.199 39.0637 32.9448 38.1739 32.7541C37.2842 32.5423 36.458 32.0868 35.6954 31.3877C34.954 30.6675 34.5832 29.7142 34.5832 28.5279C34.5832 27.0238 35.2188 25.8163 36.4898 24.9054C37.782 23.9945 39.2331 23.5391 40.8431 23.5391C41.5846 23.5391 42.326 23.6238 43.0674 23.7933C43.8301 23.9416 44.5186 24.2487 45.1329 24.7148C45.7472 25.1596 46.0544 25.7104 46.0544 26.3671C46.0544 26.9391 45.7896 27.4369 45.26 27.8606C44.7516 28.2631 43.9784 28.5279 42.9403 28.655Z" fill="#4EA177"/>
<path fill-rule="evenodd" clip-rule="evenodd" d="M33 29.9707C33 29.9707 32.9819 35.3896 32.9819 36.7737C32.9819 38.1577 31.6688 39.171 30.0765 39.171C28.4617 39.171 27.1531 38.2755 27.1531 36.6302C27.1531 34.9849 27.1536 33.8817 27.1536 33.8817C27.1536 33.6563 26.971 33.4737 26.7457 33.4737C26.5204 33.4737 26.3378 33.6563 26.3378 33.8817V36.6313C26.3378 38.1869 25.2831 39.171 23.17 39.171C21.4501 39.171 20 38.2133 20 36.5588V29.9707C20 26.3808 22.9101 23.4707 26.5 23.4707C30.0898 23.4707 33.0095 26.3808 33 29.9707ZM28.244 26.998C28.098 26.651 27.5976 26.0443 26.7646 26.3948C25.9315 26.7454 25.755 27.6369 25.901 27.9839C25.755 27.6369 24.9942 27.1397 24.1611 27.4902C23.328 27.8408 23.4119 28.6227 23.5579 28.9698C24.3235 30.7891 27.2059 31.1069 27.2155 31.108C27.2155 31.108 29.0108 28.8204 28.244 26.998Z" fill="#4EA177"/>
<path fill-rule="evenodd" clip-rule="evenodd" d="M87.7237 29.8652C87.7237 29.8652 87.7418 35.2842 87.7418 36.6682C87.7418 38.0523 89.0548 39.0656 90.6472 39.0656C92.2619 39.0656 93.5705 38.17 93.5705 36.5247C93.5705 34.8794 93.57 33.7762 93.57 33.7762C93.57 33.5509 93.7526 33.3683 93.9779 33.3683C94.2032 33.3683 94.3858 33.5509 94.3858 33.7762V36.5259C94.3858 38.0815 95.4405 39.0656 97.5537 39.0656C99.2735 39.0656 100.724 38.1078 100.724 36.4533V29.8652C100.724 26.2754 97.8135 23.3652 94.2237 23.3652C90.6338 23.3652 87.7141 26.2754 87.7237 29.8652ZM92.4796 26.8926C92.6256 26.5455 93.126 25.9389 93.9591 26.2894C94.7922 26.6399 94.9687 27.5314 94.8226 27.8784C94.9687 27.5314 95.7294 27.0343 96.5625 27.3848C97.3956 27.7353 97.3117 28.5173 97.1657 28.8643C96.4001 30.6836 93.5178 31.0014 93.5082 31.0025C93.5082 31.0025 91.7128 28.7149 92.4796 26.8926Z" fill="#4EA177"/>
<path d="M16.0435 33.675C17.6535 34.4164 18.4585 35.285 18.4585 36.2806C18.4585 36.895 18.1937 37.4352 17.6641 37.9012C17.1557 38.3672 16.5096 38.7168 15.7258 38.9498C14.9631 39.1828 14.2323 39.3523 13.5332 39.4582C12.8341 39.5641 12.1986 39.6171 11.6267 39.6171C10.2497 39.6171 8.93628 39.437 7.68642 39.0769C6.43656 38.6956 5.23967 38.113 4.09573 37.3292C2.97297 36.5242 2.07265 35.3909 1.39476 33.9292C0.716874 32.4463 0.37793 30.7198 0.37793 28.7497C0.37793 25.3603 1.38417 22.7122 3.39665 20.8057C5.40914 18.8779 8.14188 17.9141 11.5949 17.9141C13.4379 17.9141 14.9843 18.253 16.2342 18.9309C17.5052 19.5876 18.1407 20.4032 18.1407 21.3777C18.1407 22.1191 17.8336 22.7228 17.2192 23.1889C16.6049 23.6549 15.7893 23.9515 14.7725 24.0786C14.4124 23.1042 13.8404 22.3733 13.0566 21.8861C12.2728 21.3777 11.436 21.1234 10.5463 21.1234C9.08457 21.1234 7.87708 21.7907 6.9238 23.1253C5.9917 24.4599 5.52565 26.1229 5.52565 28.1142C5.52565 30.4656 6.00229 32.4357 6.95557 34.0245C7.93004 35.6133 9.28582 36.4077 11.0229 36.4077C11.9974 36.4077 12.9295 36.1853 13.8192 35.7404C14.7301 35.2956 15.4716 34.6071 16.0435 33.675Z" fill="#4EA177"/>
<path d="M99.9637 46.7643V47.5727C99.667 47.3971 99.2855 47.3093 98.8192 47.3093C98.6072 47.3093 98.4377 47.3577 98.3105 47.4546C98.1894 47.5515 98.1288 47.6787 98.1288 47.8361C98.1288 47.8785 98.1319 47.9209 98.1379 47.9633C98.15 47.9996 98.1682 48.039 98.1924 48.0814C98.2166 48.1177 98.2378 48.151 98.256 48.1813C98.2802 48.2055 98.3166 48.2328 98.365 48.263C98.4135 48.2933 98.4498 48.3206 98.474 48.3448C98.5043 48.363 98.5497 48.3872 98.6103 48.4175C98.6769 48.4477 98.7253 48.472 98.7556 48.4901C98.7859 48.5022 98.8373 48.5265 98.91 48.5628C98.9887 48.5931 99.0432 48.6143 99.0735 48.6264C99.4308 48.7838 99.7093 48.9625 99.9092 49.1623C100.115 49.3561 100.218 49.6165 100.218 49.9435C100.218 50.3552 100.073 50.6792 99.782 50.9154C99.4914 51.1455 99.0977 51.2605 98.6012 51.2605C98.0562 51.2605 97.602 51.1697 97.2387 50.988V50.1433C97.6626 50.4037 98.1016 50.5339 98.5558 50.5339C98.7919 50.5339 98.9736 50.4854 99.1008 50.3885C99.234 50.2916 99.3006 50.1645 99.3006 50.007C99.3006 49.8738 99.2491 49.7557 99.1462 49.6528C99.0432 49.5438 98.9373 49.4651 98.8283 49.4166C98.7253 49.3621 98.5467 49.2804 98.2923 49.1714C97.5717 48.8746 97.2114 48.4386 97.2114 47.8634C97.2114 47.4576 97.3628 47.1397 97.6656 46.9096C97.9684 46.6795 98.3469 46.5645 98.801 46.5645C99.2976 46.5645 99.6851 46.6311 99.9637 46.7643Z" fill="#6132CC"/>
<path d="M95.4271 48.5822V48.4187C95.415 48.0736 95.3211 47.8011 95.1455 47.6012C94.9699 47.3953 94.7186 47.2924 94.3916 47.2924C94.0888 47.2924 93.8284 47.4044 93.6104 47.6285C93.3924 47.8465 93.2562 48.1644 93.2017 48.5822H95.4271ZM95.9994 50.1718V50.9711C95.6602 51.1649 95.2121 51.2618 94.655 51.2618C93.9405 51.2618 93.3712 51.0468 92.9474 50.6169C92.5235 50.1869 92.3115 49.6238 92.3115 48.9274C92.3115 48.1886 92.5053 47.6103 92.8929 47.1925C93.2804 46.7686 93.7739 46.5566 94.3734 46.5566C94.9608 46.5566 95.4271 46.7413 95.7723 47.1107C96.1174 47.4741 96.29 48.0009 96.29 48.6912C96.29 48.8789 96.2719 49.0758 96.2355 49.2816H93.2108C93.2713 49.6813 93.4409 49.9871 93.7194 50.1991C93.998 50.411 94.3492 50.517 94.7731 50.517C95.2636 50.517 95.6724 50.4019 95.9994 50.1718Z" fill="#6132CC"/>
<path d="M90.7949 44.8477L91.3035 45.2292C91.0916 45.6773 90.7616 45.9013 90.3134 45.9013C90.1378 45.9013 89.9259 45.8408 89.6776 45.7197C89.4354 45.5925 89.2658 45.5289 89.1689 45.5289C89.0297 45.5289 88.9116 45.5622 88.8147 45.6288C88.7239 45.6954 88.63 45.8014 88.5331 45.9467L88.088 45.538C88.1728 45.3503 88.3 45.1928 88.4695 45.0657C88.6451 44.9324 88.8359 44.8658 89.0418 44.8658C89.2356 44.8658 89.4596 44.9294 89.7139 45.0566C89.9683 45.1777 90.153 45.2382 90.268 45.2382C90.4921 45.2382 90.6677 45.108 90.7949 44.8477ZM90.4588 49.1622H89.7684C89.4293 49.1622 89.172 49.2289 88.9964 49.3621C88.8268 49.4953 88.742 49.6649 88.742 49.8707C88.742 50.0827 88.8086 50.2492 88.9419 50.3703C89.0751 50.4914 89.2689 50.552 89.5232 50.552C89.8139 50.552 90.0409 50.4733 90.2044 50.3158C90.374 50.1523 90.4588 49.9404 90.4588 49.68V49.1622ZM88.1425 47.7089V46.846C88.4998 46.6401 88.9721 46.5372 89.5595 46.5372C90.7646 46.5372 91.3671 47.1215 91.3671 48.2902V51.2151H90.486V50.6701C90.2499 51.0576 89.8351 51.2514 89.2416 51.2514C88.8056 51.2514 88.4544 51.1273 88.1879 50.879C87.9276 50.6247 87.7974 50.3037 87.7974 49.9162C87.7974 49.4741 87.9639 49.132 88.2969 48.8897C88.63 48.6415 89.0963 48.5173 89.6958 48.5173H90.4588V48.2539C90.4588 47.939 90.3831 47.7029 90.2317 47.5454C90.0803 47.3819 89.829 47.3002 89.4778 47.3002C88.9873 47.3002 88.5422 47.4364 88.1425 47.7089Z" fill="#6132CC"/>
<path d="M86.9935 45.3478V46.2652C86.7271 46.1199 86.4849 46.02 86.2669 45.9655C86.0549 45.9049 85.7824 45.8746 85.4494 45.8746C84.8378 45.8746 84.3261 46.0836 83.9143 46.5014C83.5086 46.9132 83.3057 47.4612 83.3057 48.1455C83.3057 48.8419 83.5086 49.3959 83.9143 49.8077C84.32 50.2195 84.8559 50.4254 85.522 50.4254C86.1094 50.4254 86.603 50.274 87.0026 49.9712V50.9159C86.6272 51.1642 86.1064 51.2883 85.4403 51.2883C84.5259 51.2883 83.778 51.0037 83.1967 50.4345C82.6154 49.8652 82.3247 49.1022 82.3247 48.1455C82.3247 47.219 82.6154 46.4651 83.1967 45.8837C83.7841 45.3024 84.5259 45.0117 85.4221 45.0117C86.0761 45.0117 86.5999 45.1237 86.9935 45.3478Z" fill="#6132CC"/>
<path d="M78.1907 49.1622H77.5004C77.1613 49.1622 76.9039 49.2288 76.7283 49.362C76.5587 49.4952 76.474 49.6648 76.474 49.8707C76.474 50.0826 76.5406 50.2492 76.6738 50.3703C76.807 50.4914 77.0008 50.5519 77.2551 50.5519C77.5458 50.5519 77.7729 50.4732 77.9364 50.3158C78.1059 50.1523 78.1907 49.9403 78.1907 49.6799V49.1622ZM75.8745 47.7089V46.8459C76.2317 46.6401 76.7041 46.5371 77.2915 46.5371C78.4965 46.5371 79.099 47.1215 79.099 48.2902V51.215H78.218V50.67C77.9818 51.0576 77.567 51.2514 76.9736 51.2514C76.5375 51.2514 76.1863 51.1272 75.9199 50.8789C75.6595 50.6246 75.5293 50.3037 75.5293 49.9161C75.5293 49.4741 75.6958 49.1319 76.0289 48.8897C76.3619 48.6414 76.8282 48.5173 77.4277 48.5173H78.1907V48.2539C78.1907 47.939 78.115 47.7028 77.9636 47.5454C77.8122 47.3819 77.5609 47.3001 77.2097 47.3001C76.7192 47.3001 76.2741 47.4364 75.8745 47.7089Z" fill="#6132CC"/>
<path d="M73.5777 46.6099V47.4183C73.8017 46.8491 74.2044 46.5645 74.7858 46.5645C74.8705 46.5645 74.9644 46.5735 75.0673 46.5917V47.4637C74.9402 47.4092 74.7979 47.382 74.6404 47.382C74.3316 47.382 74.0773 47.5182 73.8774 47.7907C73.6776 48.0632 73.5777 48.3872 73.5777 48.7626V51.2151H72.6875V46.6099H73.5777Z" fill="#6132CC"/>
<path d="M70.5799 49.1622H69.8895C69.5504 49.1622 69.2931 49.2288 69.1175 49.362C68.9479 49.4952 68.8631 49.6648 68.8631 49.8707C68.8631 50.0826 68.9297 50.2492 69.063 50.3703C69.1962 50.4914 69.39 50.5519 69.6443 50.5519C69.935 50.5519 70.162 50.4732 70.3255 50.3158C70.4951 50.1523 70.5799 49.9403 70.5799 49.6799V49.1622ZM68.2636 47.7089V46.8459C68.6209 46.6401 69.0932 46.5371 69.6806 46.5371C70.8857 46.5371 71.4882 47.1215 71.4882 48.2902V51.215H70.6071V50.67C70.371 51.0576 69.9562 51.2514 69.3627 51.2514C68.9267 51.2514 68.5755 51.1272 68.309 50.8789C68.0487 50.6246 67.9185 50.3037 67.9185 49.9161C67.9185 49.4741 68.085 49.1319 68.418 48.8897C68.7511 48.6414 69.2174 48.5173 69.8169 48.5173H70.5799V48.2539C70.5799 47.939 70.5042 47.7028 70.3528 47.5454C70.2014 47.3819 69.9501 47.3001 69.5989 47.3001C69.1084 47.3001 68.6633 47.4364 68.2636 47.7089Z" fill="#6132CC"/>
<path d="M65.0112 50.4981C65.3685 50.4981 65.6622 50.3588 65.8923 50.0803C66.1224 49.7957 66.2375 49.399 66.2375 48.8904C66.2375 48.412 66.1255 48.0335 65.9014 47.755C65.6774 47.4703 65.3927 47.328 65.0476 47.328C64.7024 47.328 64.4027 47.4552 64.1483 47.7095C63.9 47.9578 63.7759 48.3545 63.7759 48.8995C63.7759 49.4323 63.9 49.832 64.1483 50.0985C64.4027 50.3649 64.6903 50.4981 65.0112 50.4981ZM63.7759 46.6105V47.319C64.0908 46.8042 64.5631 46.5469 65.1929 46.5469C65.7985 46.5469 66.2769 46.7679 66.6281 47.21C66.9793 47.646 67.1549 48.2031 67.1549 48.8813C67.1549 49.5777 66.9732 50.153 66.6099 50.6071C66.2526 51.0552 65.7742 51.2793 65.1747 51.2793C64.5631 51.2793 64.0969 51.025 63.7759 50.5163V52.9779H62.8857V46.6105H63.7759Z" fill="#6132CC"/>
<path d="M58.46 51.2149V44.793H59.3592V51.2149H58.46Z" fill="#6132CC"/>
<path d="M56.513 48.5822V48.4187C56.5009 48.0736 56.4071 47.8011 56.2315 47.6012C56.0558 47.3953 55.8045 47.2924 55.4775 47.2924C55.1748 47.2924 54.9144 47.4044 54.6964 47.6285C54.4784 47.8465 54.3421 48.1644 54.2876 48.5822H56.513ZM57.0853 50.1718V50.9711C56.7462 51.1649 56.2981 51.2618 55.741 51.2618C55.0264 51.2618 54.4572 51.0468 54.0333 50.6169C53.6094 50.1869 53.3975 49.6238 53.3975 48.9274C53.3975 48.1886 53.5912 47.6103 53.9788 47.1925C54.3663 46.7686 54.8599 46.5566 55.4594 46.5566C56.0468 46.5566 56.513 46.7413 56.8582 47.1107C57.2034 47.4741 57.376 48.0009 57.376 48.6912C57.376 48.8789 57.3578 49.0758 57.3215 49.2816H54.2967C54.3573 49.6813 54.5268 49.9871 54.8054 50.1991C55.0839 50.411 55.4352 50.517 55.859 50.517C56.3495 50.517 56.7583 50.4019 57.0853 50.1718Z" fill="#6132CC"/>
<path d="M51.4078 47.301V49.8353C51.4078 50.2773 51.6198 50.4984 52.0437 50.4984C52.292 50.4984 52.5009 50.4318 52.6704 50.2985V51.0979C52.4706 51.2069 52.2253 51.2614 51.9347 51.2614C50.984 51.2614 50.5086 50.78 50.5086 49.8171V47.301H49.791V46.6107H50.5086V45.4844H51.4078V46.6107H52.6159V47.301H51.4078Z" fill="#6132CC"/>
<path d="M47.0526 51.2975C46.3743 51.2975 45.8414 51.0764 45.4539 50.6344C45.0663 50.1923 44.8726 49.6322 44.8726 48.954C44.8726 48.2636 45.0724 47.6914 45.4721 47.2372C45.8717 46.777 46.3986 46.5469 47.0526 46.5469C47.755 46.5469 48.297 46.7709 48.6785 47.219C49.06 47.6611 49.2507 48.2273 49.2507 48.9176C49.2507 49.608 49.0539 50.1772 48.6603 50.6253C48.2728 51.0734 47.7368 51.2975 47.0526 51.2975ZM47.0435 47.3008C46.6499 47.3008 46.3441 47.4582 46.1261 47.7731C45.9081 48.082 45.7991 48.4665 45.7991 48.9267C45.7991 49.3809 45.9111 49.7654 46.1351 50.0803C46.3592 50.3891 46.665 50.5435 47.0526 50.5435C47.4643 50.5435 47.7762 50.3922 47.9881 50.0894C48.2061 49.7866 48.3151 49.4021 48.3151 48.9358C48.3151 48.4574 48.2122 48.0668 48.0063 47.764C47.8004 47.4552 47.4795 47.3008 47.0435 47.3008Z" fill="#6132CC"/>
<path d="M42.8905 45.0938H43.8261V51.2159H42.8905V48.5363H40.1382V51.2159H39.2026V45.0938H40.1382V47.7279H42.8905V45.0938Z" fill="#6132CC"/>
<path d="M35.0199 48.5822V48.4187C35.0078 48.0736 34.9139 47.8011 34.7383 47.6012C34.5627 47.3953 34.3114 47.2924 33.9844 47.2924C33.6816 47.2924 33.4212 47.4044 33.2032 47.6285C32.9852 47.8465 32.849 48.1644 32.7945 48.5822H35.0199ZM35.5921 50.1718V50.9711C35.253 51.1649 34.8049 51.2618 34.2478 51.2618C33.5332 51.2618 32.964 51.0468 32.5401 50.6169C32.1162 50.1869 31.9043 49.6238 31.9043 48.9274C31.9043 48.1886 32.0981 47.6103 32.4856 47.1925C32.8732 46.7686 33.3667 46.5566 33.9662 46.5566C34.5536 46.5566 35.0199 46.7413 35.365 47.1107C35.7102 47.4741 35.8828 48.0009 35.8828 48.6912C35.8828 48.8789 35.8646 49.0758 35.8283 49.2816H32.8035C32.8641 49.6813 33.0337 49.9871 33.3122 50.1991C33.5908 50.411 33.942 50.517 34.3659 50.517C34.8564 50.517 35.2651 50.4019 35.5921 50.1718Z" fill="#6132CC"/>
<path d="M28.0121 48.5822V48.4187C28 48.0736 27.9061 47.8011 27.7305 47.6012C27.5549 47.3953 27.3036 47.2924 26.9766 47.2924C26.6738 47.2924 26.4134 47.4044 26.1954 47.6285C25.9774 47.8465 25.8412 48.1644 25.7867 48.5822H28.0121ZM28.5843 50.1718V50.9711C28.2452 51.1649 27.7971 51.2618 27.24 51.2618C26.5254 51.2618 25.9562 51.0468 25.5323 50.6169C25.1084 50.1869 24.8965 49.6238 24.8965 48.9274C24.8965 48.1886 25.0903 47.6103 25.4778 47.1925C25.8654 46.7686 26.3589 46.5566 26.9584 46.5566C27.5458 46.5566 28.0121 46.7413 28.3572 47.1107C28.7024 47.4741 28.875 48.0009 28.875 48.6912C28.875 48.8789 28.8568 49.0758 28.8205 49.2816H25.7957C25.8563 49.6813 26.0258 49.9871 26.3044 50.1991C26.583 50.411 26.9342 50.517 27.3581 50.517C27.8486 50.517 28.2573 50.4019 28.5843 50.1718Z" fill="#6132CC"/>
<path d="M21.0381 44.793V47.3999C21.2985 46.8307 21.7739 46.5461 22.4642 46.5461C22.9123 46.5461 23.2726 46.6853 23.5451 46.9639C23.8176 47.2424 23.9539 47.63 23.9539 48.1266V51.2149H23.0637V48.3082C23.0637 47.9933 22.9819 47.7511 22.8184 47.5816C22.661 47.4059 22.4521 47.3181 22.1917 47.3181C21.8889 47.3181 21.6194 47.4332 21.3833 47.6633C21.1532 47.8934 21.0381 48.2446 21.0381 48.717V51.2149H20.1479V44.793H21.0381Z" fill="#6132CC"/>
<path d="M16.5351 48.9344C16.5472 49.4007 16.6895 49.7852 16.962 50.088C17.2345 50.3847 17.616 50.5331 18.1065 50.5331C18.4698 50.5331 18.809 50.4332 19.1238 50.2333V51.0327C18.8271 51.2143 18.4486 51.3052 17.9884 51.3052C17.2678 51.3052 16.6925 51.0781 16.2626 50.6239C15.8326 50.1698 15.6177 49.6036 15.6177 48.9253C15.6177 48.2653 15.8326 47.7021 16.2626 47.2358C16.6986 46.7635 17.286 46.5273 18.0248 46.5273C18.4244 46.5273 18.7908 46.6121 19.1238 46.7817V47.5992C18.8271 47.4115 18.491 47.3176 18.1156 47.3176C17.6372 47.3176 17.2527 47.469 16.962 47.7718C16.6774 48.0745 16.5351 48.4621 16.5351 48.9344Z" fill="#6132CC"/>
<path d="M13.9613 48.5822V48.4187C13.9492 48.0736 13.8553 47.8011 13.6797 47.6012C13.5041 47.3953 13.2528 47.2924 12.9258 47.2924C12.623 47.2924 12.3626 47.4044 12.1446 47.6285C11.9266 47.8465 11.7904 48.1644 11.7359 48.5822H13.9613ZM14.5335 50.1718V50.9711C14.1944 51.1649 13.7463 51.2618 13.1892 51.2618C12.4746 51.2618 11.9054 51.0468 11.4815 50.6169C11.0576 50.1869 10.8457 49.6238 10.8457 48.9274C10.8457 48.1886 11.0395 47.6103 11.427 47.1925C11.8146 46.7686 12.3081 46.5566 12.9076 46.5566C13.495 46.5566 13.9613 46.7413 14.3065 47.1107C14.6516 47.4741 14.8242 48.0009 14.8242 48.6912C14.8242 48.8789 14.806 49.0758 14.7697 49.2816H11.745C11.8055 49.6813 11.9751 49.9871 12.2536 50.1991C12.5322 50.411 12.8834 50.517 13.3073 50.517C13.7978 50.517 14.2065 50.4019 14.5335 50.1718Z" fill="#6132CC"/>
<path d="M8.91214 46.6099V47.4183C9.1362 46.8491 9.53889 46.5645 10.1202 46.5645C10.205 46.5645 10.2989 46.5735 10.4018 46.5917V47.4637C10.2746 47.4092 10.1323 47.382 9.97489 47.382C9.66606 47.382 9.41172 47.5182 9.21189 47.7907C9.01206 48.0632 8.91214 48.3872 8.91214 48.7626V51.2151H8.02197V46.6099H8.91214Z" fill="#6132CC"/>
<path d="M6.98231 45.3478V46.2652C6.71587 46.1199 6.47364 46.02 6.25564 45.9655C6.0437 45.9049 5.7712 45.8746 5.43814 45.8746C4.82653 45.8746 4.31484 46.0836 3.90306 46.5014C3.49734 46.9132 3.29448 47.4612 3.29448 48.1455C3.29448 48.8419 3.49734 49.3959 3.90306 49.8077C4.30878 50.2195 4.8447 50.4254 5.51081 50.4254C6.0982 50.4254 6.59173 50.274 6.99139 49.9712V50.9159C6.61595 51.1642 6.09517 51.2883 5.42906 51.2883C4.51467 51.2883 3.76681 51.0037 3.18548 50.4345C2.60414 49.8652 2.31348 49.1022 2.31348 48.1455C2.31348 47.219 2.60414 46.4651 3.18548 45.8837C3.77287 45.3024 4.51467 45.0117 5.41089 45.0117C6.06489 45.0117 6.5887 45.1237 6.98231 45.3478Z" fill="#6132CC"/>
</svg>
