<svg width="145" height="65" viewBox="0 0 145 65" fill="none" xmlns="http://www.w3.org/2000/svg">
<rect width="144.821" height="64.8203" fill="white"/>
<rect width="26.2858" height="26.2858" transform="matrix(-1 0 0 1 128.183 20.123)" fill="white"/>
<rect width="26.2858" height="26.2858" transform="translate(32.2668 20.123)" fill="white"/>
<path d="M120.541 29.3072C120.541 25.7688 117.672 22.9004 114.134 22.9004V22.9004C110.595 22.9004 107.727 25.7688 107.727 29.3072V36.0142H120.541V29.3072Z" fill="#4EA177"/>
<path d="M113.873 25.7833C114.694 26.1288 114.868 27.0076 114.724 27.3496C114.868 27.0076 115.618 26.5175 116.439 26.863C117.261 27.2085 117.178 27.9793 117.034 28.3213C116.278 30.1176 113.429 30.4289 113.429 30.4289C113.429 30.4289 111.659 28.1741 112.415 26.3779C112.559 26.0358 113.052 25.4378 113.873 25.7833Z" fill="white"/>
<path d="M114.294 32.7598H113.49V37.6311H114.294V32.7598Z" fill="white"/>
<path d="M114.292 35.9449C114.292 37.2876 115.691 38.3761 117.416 38.3761C119.141 38.3761 120.54 37.2876 120.54 35.9449C120.54 34.6022 119.141 33.5137 117.416 33.5137C115.691 33.5137 114.292 34.6022 114.292 35.9449Z" fill="#4EA177"/>
<path d="M113.49 32.7589C113.49 32.9461 113.67 33.0979 113.892 33.0979C114.114 33.0979 114.294 32.9461 114.294 32.7589C114.294 32.5717 114.114 32.4199 113.892 32.4199C113.67 32.4199 113.49 32.5717 113.49 32.7589Z" fill="white"/>
<path d="M107.727 35.96C107.727 37.2948 109.017 38.377 110.609 38.377C112.2 38.377 113.491 37.2948 113.491 35.96C113.491 34.6251 112.2 33.543 110.609 33.543C109.017 33.543 107.727 34.6251 107.727 35.96Z" fill="#4EA177"/>
<path d="M39.9087 29.3072C39.9087 25.7688 42.7771 22.9004 46.3155 22.9004V22.9004C49.8539 22.9004 52.7223 25.7688 52.7223 29.3072V36.0142H39.9087V29.3072Z" fill="#4EA177"/>
<path d="M46.5761 25.7833C45.755 26.1288 45.5811 27.0076 45.725 27.3496C45.5811 27.0076 44.8312 26.5175 44.0101 26.863C43.1889 27.2085 43.2716 27.9793 43.4155 28.3213C44.1713 30.1176 47.0206 30.4289 47.0206 30.4289C47.0206 30.4289 48.7902 28.1741 48.0344 26.3779C47.8905 26.0358 47.3973 25.4378 46.5761 25.7833Z" fill="white"/>
<path d="M46.1555 32.7598H46.9596V37.6311H46.1555V32.7598Z" fill="white"/>
<path d="M46.1571 35.9449C46.1571 37.2876 44.7585 38.3761 43.0333 38.3761C41.308 38.3761 39.9094 37.2876 39.9094 35.9449C39.9094 34.6022 41.308 33.5137 43.0333 33.5137C44.7585 33.5137 46.1571 34.6022 46.1571 35.9449Z" fill="#4EA177"/>
<path d="M46.9594 32.7589C46.9594 32.9461 46.7794 33.0979 46.5575 33.0979C46.3355 33.0979 46.1555 32.9461 46.1555 32.7589C46.1555 32.5717 46.3355 32.4199 46.5575 32.4199C46.7794 32.4199 46.9594 32.5717 46.9594 32.7589Z" fill="white"/>
<path d="M52.7225 35.96C52.7225 37.2948 51.4323 38.377 49.8406 38.377C48.249 38.377 46.9587 37.2948 46.9587 35.96C46.9587 34.6251 48.249 33.543 49.8406 33.543C51.4323 33.543 52.7225 34.6251 52.7225 35.96Z" fill="#4EA177"/>
<path d="M93.7958 14.6895C94.6008 14.6895 95.2257 14.8271 95.6706 15.1025C96.1154 15.3779 96.3379 15.9181 96.3379 16.7231C96.3379 16.8502 96.2955 17.7823 96.2108 19.5194C96.1472 21.2565 96.1154 22.5593 96.1154 23.4279V24.826C97.45 23.555 98.9647 22.9195 100.659 22.9195C102.1 22.9195 103.286 23.3325 104.218 24.1587C105.15 24.9849 105.616 26.1606 105.616 27.6859C105.616 27.7282 105.595 28.4909 105.553 29.9737C105.532 31.4566 105.521 32.5794 105.521 33.342C105.521 35.1638 105.701 36.7103 106.061 37.9813C105.15 38.2567 104.229 38.3944 103.297 38.3944C101.602 38.3944 100.755 37.7483 100.755 36.456C100.755 35.6934 100.787 34.2953 100.85 32.2616C100.914 30.2068 100.945 28.9675 100.945 28.5438C100.945 27.6753 100.765 27.0292 100.405 26.6055C100.066 26.1606 99.6214 25.9382 99.0706 25.9382C98.1809 25.9382 97.1958 26.4572 96.1154 27.4952C96.1578 30.2068 96.179 32.1663 96.179 33.3738C96.179 35.238 96.2319 36.8691 96.3379 38.2673C95.6388 38.3308 95.0139 38.3626 94.4631 38.3626C92.3447 38.3626 91.2855 37.8542 91.2855 36.8374C91.2855 36.7526 91.3067 36.0218 91.349 34.6448C91.4126 33.2467 91.4444 31.7956 91.4444 30.2915V22.5381C91.4444 19.5088 91.3702 17.0303 91.2219 15.1025C92.0269 14.8271 92.8849 14.6895 93.7958 14.6895Z" fill="#4EA177"/>
<path d="M74.4875 23.5237C75.3561 23.2483 76.1823 23.1106 76.9661 23.1106C78.5125 23.1106 79.3917 23.7355 79.6035 24.9854C80.9805 23.6084 82.5481 22.9199 84.3063 22.9199C85.7469 22.9199 86.9332 23.333 87.8653 24.1592C88.7974 24.9854 89.2634 26.1611 89.2634 27.6863C89.2634 27.7287 89.2422 28.4913 89.1999 29.9742C89.1787 31.4571 89.1681 32.5798 89.1681 33.3425C89.1681 35.1643 89.3482 36.7107 89.7083 37.9818C88.7974 38.2572 87.8759 38.3949 86.9438 38.3949C85.249 38.3949 84.4017 37.7487 84.4017 36.4565C84.4017 35.6939 84.4335 34.2957 84.497 32.2621C84.5606 30.2072 84.5923 28.968 84.5923 28.5443C84.5923 27.6757 84.4123 27.0296 84.0521 26.6059C83.7132 26.1611 83.2683 25.9386 82.7175 25.9386C81.8278 25.9386 80.8428 26.4577 79.7624 27.4957C79.8047 30.2072 79.8259 32.1668 79.8259 33.3742C79.8259 35.2384 79.8789 36.8696 79.9848 38.2678C79.2857 38.3313 78.6608 38.3631 78.11 38.3631C75.9916 38.3631 74.9324 37.8547 74.9324 36.8378C74.9324 36.7531 74.9536 36.0117 74.996 34.6135C75.0595 33.2154 75.0913 31.7643 75.0913 30.2602C75.0913 26.8072 74.89 24.5617 74.4875 23.5237Z" fill="#4EA177"/>
<path d="M70.1077 21.7761C69.3027 21.7761 68.6142 21.5007 68.0422 20.9499C67.4915 20.378 67.2161 19.6577 67.2161 18.7892C67.2161 17.963 67.5126 17.2639 68.1058 16.6919C68.6989 16.12 69.3874 15.834 70.1712 15.834C70.955 15.834 71.6223 16.12 72.1731 16.6919C72.7451 17.2639 73.0311 17.963 73.0311 18.7892C73.0311 19.6365 72.7345 20.3462 72.1414 20.9182C71.5482 21.4901 70.8703 21.7761 70.1077 21.7761ZM70.1712 23.1107C70.9762 23.1107 71.6012 23.2484 72.046 23.5238C72.4909 23.7992 72.7133 24.3394 72.7133 25.1444C72.7133 25.2715 72.671 26.2036 72.5862 27.9407C72.5227 29.6777 72.4909 30.9806 72.4909 31.8491C72.4909 34.8572 72.671 36.9015 73.0311 37.9819C72.1414 38.2573 71.2622 38.395 70.3937 38.395C69.398 38.395 68.6989 38.2255 68.2965 37.8866C67.9151 37.5264 67.7245 37.0074 67.7245 36.3295C67.7245 35.9906 67.7351 35.1962 67.7563 33.9463C67.7986 32.6965 67.8198 31.7008 67.8198 30.9594C67.8198 27.9301 67.7457 25.4515 67.5974 23.5238C68.4024 23.2484 69.2603 23.1107 70.1712 23.1107Z" fill="#4EA177"/>
<path d="M62.9406 28.0027C62.7711 27.346 62.4745 26.8375 62.0509 26.4774C61.6272 26.1173 61.1611 25.9372 60.6527 25.9372C60.1655 25.9372 59.7524 26.0643 59.4134 26.3185C59.0745 26.5727 58.905 26.9435 58.905 27.4307C58.905 27.9391 59.1486 28.3416 59.6359 28.6382C60.1443 28.9348 60.748 29.1784 61.4471 29.369C62.1674 29.5385 62.877 29.7609 63.5761 30.0363C64.2964 30.2905 64.9001 30.7248 65.3873 31.3391C65.8958 31.9535 66.15 32.7373 66.15 33.6906C66.15 35.3006 65.5039 36.5292 64.2116 37.3766C62.9406 38.2028 61.4365 38.6159 59.6994 38.6159C59.1486 38.6159 58.6084 38.5841 58.0788 38.5205C57.5492 38.4782 56.9349 38.3828 56.2358 38.2346C55.5579 38.0651 55.0072 37.7897 54.5835 37.4084C54.181 37.0059 53.9797 36.5186 53.9797 35.9467C53.9797 34.8027 54.8377 33.913 56.5536 33.2775C56.7654 34.0401 57.1679 34.6121 57.7611 34.9934C58.3542 35.3747 58.9792 35.5654 59.6359 35.5654C61.0552 35.5654 61.7649 35.0569 61.7649 34.0401C61.7649 33.5529 61.3836 33.161 60.6209 32.8644C59.8795 32.5466 59.0639 32.2924 58.1742 32.1018C57.2844 31.8899 56.4583 31.4345 55.6956 30.7354C54.9542 30.0151 54.5835 29.0619 54.5835 27.8756C54.5835 26.3715 55.219 25.164 56.49 24.2531C57.7823 23.3422 59.2334 22.8867 60.8434 22.8867C61.5848 22.8867 62.3262 22.9715 63.0677 23.1409C63.8303 23.2892 64.5188 23.5964 65.1331 24.0624C65.7475 24.5073 66.0546 25.0581 66.0546 25.7148C66.0546 26.2868 65.7898 26.7846 65.2602 27.2083C64.7518 27.6108 63.9786 27.8756 62.9406 28.0027Z" fill="#4EA177"/>
<path d="M36.044 32.675C37.654 33.4164 38.459 34.285 38.459 35.2806C38.459 35.895 38.1942 36.4352 37.6646 36.9012C37.1562 37.3672 36.5101 37.7168 35.7263 37.9498C34.9636 38.1828 34.2328 38.3523 33.5337 38.4582C32.8346 38.5641 32.1991 38.6171 31.6271 38.6171C30.2502 38.6171 28.9368 38.437 27.6869 38.0769C26.4371 37.6956 25.2402 37.113 24.0962 36.3292C22.9735 35.5242 22.0731 34.3909 21.3953 32.9292C20.7174 31.4463 20.3784 29.7198 20.3784 27.7497C20.3784 24.3603 21.3847 21.7122 23.3971 19.8057C25.4096 17.8779 28.1424 16.9141 31.5954 16.9141C33.4384 16.9141 34.9848 17.253 36.2347 17.9309C37.5057 18.5876 38.1412 19.4032 38.1412 20.3777C38.1412 21.1191 37.8341 21.7228 37.2197 22.1889C36.6054 22.6549 35.7898 22.9515 34.773 23.0786C34.4128 22.1042 33.8409 21.3733 33.0571 20.8861C32.2733 20.3777 31.4365 20.1234 30.5468 20.1234C29.0851 20.1234 27.8776 20.7907 26.9243 22.1253C25.9922 23.4599 25.5261 25.1229 25.5261 27.1142C25.5261 29.4656 26.0028 31.4357 26.9561 33.0245C27.9305 34.6133 29.2863 35.4077 31.0234 35.4077C31.9979 35.4077 32.93 35.1853 33.8197 34.7404C34.7306 34.2956 35.472 33.6071 36.044 32.675Z" fill="#4EA177"/>
<path d="M119.963 46.2526V47.061C119.667 46.8854 119.285 46.7976 118.819 46.7976C118.607 46.7976 118.437 46.846 118.31 46.9429C118.189 47.0398 118.129 47.167 118.129 47.3244C118.129 47.3668 118.132 47.4092 118.138 47.4516C118.15 47.4879 118.168 47.5273 118.192 47.5697C118.216 47.606 118.238 47.6393 118.256 47.6696C118.28 47.6938 118.316 47.721 118.365 47.7513C118.413 47.7816 118.45 47.8088 118.474 47.8331C118.504 47.8512 118.549 47.8755 118.61 47.9057C118.677 47.936 118.725 47.9602 118.755 47.9784C118.786 47.9905 118.837 48.0147 118.91 48.0511C118.988 48.0813 119.043 48.1025 119.073 48.1147C119.431 48.2721 119.709 48.4507 119.909 48.6506C120.115 48.8443 120.218 49.1047 120.218 49.4317C120.218 49.8435 120.072 50.1675 119.782 50.4037C119.491 50.6338 119.097 50.7488 118.601 50.7488C118.056 50.7488 117.602 50.658 117.238 50.4763V49.6316C117.662 49.892 118.101 50.0222 118.556 50.0222C118.792 50.0222 118.973 49.9737 119.101 49.8768C119.234 49.7799 119.3 49.6528 119.3 49.4953C119.3 49.3621 119.249 49.244 119.146 49.1411C119.043 49.0321 118.937 48.9533 118.828 48.9049C118.725 48.8504 118.546 48.7687 118.292 48.6597C117.571 48.3629 117.211 47.9269 117.211 47.3517C117.211 46.9459 117.363 46.628 117.665 46.3979C117.968 46.1678 118.347 46.0527 118.801 46.0527C119.297 46.0527 119.685 46.1193 119.963 46.2526Z" fill="#6132CC"/>
<path d="M115.427 48.0686V47.9051C115.415 47.5599 115.321 47.2874 115.146 47.0876C114.97 46.8817 114.719 46.7787 114.392 46.7787C114.089 46.7787 113.829 46.8907 113.611 47.1148C113.393 47.3328 113.256 47.6507 113.202 48.0686H115.427ZM116 49.6581V50.4575C115.66 50.6512 115.212 50.7481 114.655 50.7481C113.941 50.7481 113.371 50.5332 112.948 50.1032C112.524 49.6733 112.312 49.1101 112.312 48.4137C112.312 47.6749 112.506 47.0966 112.893 46.6788C113.281 46.2549 113.774 46.043 114.374 46.043C114.961 46.043 115.427 46.2277 115.773 46.5971C116.118 46.9604 116.29 47.4872 116.29 48.1776C116.29 48.3653 116.272 48.5621 116.236 48.768H113.211C113.272 49.1676 113.441 49.4734 113.72 49.6854C113.998 49.8973 114.349 50.0033 114.773 50.0033C115.264 50.0033 115.673 49.8882 116 49.6581Z" fill="#6132CC"/>
<path d="M110.795 44.3359L111.303 44.7174C111.091 45.1655 110.761 45.3896 110.313 45.3896C110.138 45.3896 109.926 45.329 109.677 45.2079C109.435 45.0808 109.266 45.0172 109.169 45.0172C109.029 45.0172 108.911 45.0505 108.814 45.1171C108.724 45.1837 108.63 45.2897 108.533 45.435L108.088 45.0263C108.173 44.8385 108.3 44.6811 108.469 44.5539C108.645 44.4207 108.836 44.3541 109.042 44.3541C109.235 44.3541 109.459 44.4177 109.714 44.5449C109.968 44.666 110.153 44.7265 110.268 44.7265C110.492 44.7265 110.667 44.5963 110.795 44.3359ZM110.459 48.6505H109.768C109.429 48.6505 109.172 48.7171 108.996 48.8504C108.827 48.9836 108.742 49.1531 108.742 49.359C108.742 49.571 108.808 49.7375 108.942 49.8586C109.075 49.9797 109.269 50.0403 109.523 50.0403C109.814 50.0403 110.041 49.9615 110.204 49.8041C110.374 49.6406 110.459 49.4287 110.459 49.1683V48.6505ZM108.142 47.1972V46.3343C108.5 46.1284 108.972 46.0254 109.559 46.0254C110.764 46.0254 111.367 46.6098 111.367 47.7785V50.7034H110.486V50.1584C110.25 50.5459 109.835 50.7397 109.241 50.7397C108.805 50.7397 108.454 50.6155 108.188 50.3673C107.927 50.1129 107.797 49.792 107.797 49.4044C107.797 48.9624 107.964 48.6202 108.297 48.378C108.63 48.1297 109.096 48.0056 109.696 48.0056H110.459V47.7422C110.459 47.4273 110.383 47.1911 110.231 47.0337C110.08 46.8702 109.829 46.7884 109.478 46.7884C108.987 46.7884 108.542 46.9247 108.142 47.1972Z" fill="#6132CC"/>
<path d="M106.994 44.8361V45.7535C106.727 45.6082 106.485 45.5083 106.267 45.4538C106.055 45.3932 105.782 45.3629 105.449 45.3629C104.838 45.3629 104.326 45.5718 103.914 45.9897C103.509 46.4014 103.306 46.9495 103.306 47.6338C103.306 48.3301 103.509 48.8842 103.914 49.296C104.32 49.7078 104.856 49.9137 105.522 49.9137C106.109 49.9137 106.603 49.7623 107.003 49.4595V50.4042C106.627 50.6524 106.106 50.7766 105.44 50.7766C104.526 50.7766 103.778 50.492 103.197 49.9228C102.615 49.3535 102.325 48.5905 102.325 47.6338C102.325 46.7073 102.615 45.9533 103.197 45.372C103.784 44.7907 104.526 44.5 105.422 44.5C106.076 44.5 106.6 44.612 106.994 44.8361Z" fill="#6132CC"/>
<path d="M98.1907 48.6505H97.5004C97.1613 48.6505 96.9039 48.7171 96.7283 48.8503C96.5587 48.9835 96.474 49.1531 96.474 49.359C96.474 49.5709 96.5406 49.7374 96.6738 49.8586C96.807 49.9797 97.0008 50.0402 97.2551 50.0402C97.5458 50.0402 97.7729 49.9615 97.9364 49.8041C98.1059 49.6406 98.1907 49.4286 98.1907 49.1682V48.6505ZM95.8745 47.1971V46.3342C96.2317 46.1283 96.7041 46.0254 97.2915 46.0254C98.4965 46.0254 99.099 46.6098 99.099 47.7785V50.7033H98.218V50.1583C97.9818 50.5459 97.567 50.7396 96.9735 50.7396C96.5375 50.7396 96.1863 50.6155 95.9199 50.3672C95.6595 50.1129 95.5293 49.7919 95.5293 49.4044C95.5293 48.9623 95.6958 48.6202 96.0289 48.378C96.3619 48.1297 96.8282 48.0056 97.4277 48.0056H98.1907V47.7421C98.1907 47.4273 98.115 47.1911 97.9636 47.0336C97.8122 46.8701 97.5609 46.7884 97.2097 46.7884C96.7192 46.7884 96.2741 46.9246 95.8745 47.1971Z" fill="#6132CC"/>
<path d="M93.5777 46.0982V46.9066C93.8017 46.3373 94.2044 46.0527 94.7858 46.0527C94.8705 46.0527 94.9644 46.0618 95.0673 46.08V46.952C94.9402 46.8975 94.7979 46.8702 94.6404 46.8702C94.3316 46.8702 94.0773 47.0065 93.8774 47.279C93.6776 47.5515 93.5777 47.8755 93.5777 48.2509V50.7034H92.6875V46.0982H93.5777Z" fill="#6132CC"/>
<path d="M90.5799 48.6505H89.8895C89.5504 48.6505 89.2931 48.7171 89.1175 48.8503C88.9479 48.9835 88.8631 49.1531 88.8631 49.359C88.8631 49.5709 88.9297 49.7374 89.063 49.8586C89.1962 49.9797 89.39 50.0402 89.6443 50.0402C89.935 50.0402 90.162 49.9615 90.3255 49.8041C90.4951 49.6406 90.5799 49.4286 90.5799 49.1682V48.6505ZM88.2636 47.1971V46.3342C88.6209 46.1283 89.0932 46.0254 89.6806 46.0254C90.8857 46.0254 91.4882 46.6098 91.4882 47.7785V50.7033H90.6071V50.1583C90.371 50.5459 89.9561 50.7396 89.3627 50.7396C88.9267 50.7396 88.5755 50.6155 88.309 50.3672C88.0486 50.1129 87.9185 49.7919 87.9185 49.4044C87.9185 48.9623 88.085 48.6202 88.418 48.378C88.7511 48.1297 89.2174 48.0056 89.8169 48.0056H90.5799V47.7421C90.5799 47.4273 90.5042 47.1911 90.3528 47.0336C90.2014 46.8701 89.9501 46.7884 89.5989 46.7884C89.1084 46.7884 88.6633 46.9246 88.2636 47.1971Z" fill="#6132CC"/>
<path d="M85.0112 49.9864C85.3685 49.9864 85.6622 49.8471 85.8923 49.5686C86.1224 49.284 86.2375 48.8873 86.2375 48.3787C86.2375 47.9003 86.1255 47.5218 85.9014 47.2432C85.6774 46.9586 85.3927 46.8163 85.0476 46.8163C84.7024 46.8163 84.4027 46.9435 84.1483 47.1978C83.9 47.4461 83.7759 47.8427 83.7759 48.3877C83.7759 48.9206 83.9 49.3203 84.1483 49.5867C84.4027 49.8532 84.6903 49.9864 85.0112 49.9864ZM83.7759 46.0987V46.8072C84.0908 46.2925 84.5631 46.0352 85.1929 46.0352C85.7985 46.0352 86.2769 46.2562 86.6281 46.6982C86.9793 47.1342 87.1549 47.6914 87.1549 48.3696C87.1549 49.066 86.9732 49.6412 86.6099 50.0954C86.2526 50.5435 85.7742 50.7676 85.1747 50.7676C84.5631 50.7676 84.0969 50.5132 83.7759 50.0046V52.4662H82.8857V46.0987H83.7759Z" fill="#6132CC"/>
<path d="M78.4602 50.7032V44.2812H79.3595V50.7032H78.4602Z" fill="#6132CC"/>
<path d="M76.5128 48.0686V47.9051C76.5007 47.5599 76.4068 47.2874 76.2312 47.0876C76.0556 46.8817 75.8043 46.7787 75.4773 46.7787C75.1745 46.7787 74.9141 46.8907 74.6961 47.1148C74.4781 47.3328 74.3419 47.6507 74.2874 48.0686H76.5128ZM77.085 49.6581V50.4575C76.7459 50.6512 76.2978 50.7481 75.7407 50.7481C75.0262 50.7481 74.4569 50.5332 74.0331 50.1032C73.6092 49.6733 73.3972 49.1101 73.3972 48.4137C73.3972 47.6749 73.591 47.0966 73.9785 46.6788C74.3661 46.2549 74.8596 46.043 75.4591 46.043C76.0465 46.043 76.5128 46.2277 76.858 46.5971C77.2031 46.9604 77.3757 47.4872 77.3757 48.1776C77.3757 48.3653 77.3575 48.5621 77.3212 48.768H74.2965C74.357 49.1676 74.5266 49.4734 74.8051 49.6854C75.0837 49.8973 75.4349 50.0033 75.8588 50.0033C76.3493 50.0033 76.758 49.8882 77.085 49.6581Z" fill="#6132CC"/>
<path d="M71.4076 46.7874V49.3216C71.4076 49.7637 71.6195 49.9847 72.0434 49.9847C72.2917 49.9847 72.5006 49.9181 72.6702 49.7849V50.5842C72.4704 50.6932 72.2251 50.7477 71.9344 50.7477C70.9837 50.7477 70.5084 50.2663 70.5084 49.3035V46.7874H69.7908V46.097H70.5084V44.9707H71.4076V46.097H72.6157V46.7874H71.4076Z" fill="#6132CC"/>
<path d="M67.0526 50.7857C66.3743 50.7857 65.8414 50.5647 65.4539 50.1227C65.0663 49.6806 64.8726 49.1205 64.8726 48.4422C64.8726 47.7519 65.0724 47.1797 65.4721 46.7255C65.8717 46.2653 66.3986 46.0352 67.0526 46.0352C67.755 46.0352 68.297 46.2592 68.6785 46.7073C69.06 47.1494 69.2507 47.7156 69.2507 48.4059C69.2507 49.0962 69.0539 49.6655 68.6603 50.1136C68.2728 50.5617 67.7368 50.7857 67.0526 50.7857ZM67.0435 46.7891C66.6499 46.7891 66.3441 46.9465 66.1261 47.2614C65.9081 47.5702 65.7991 47.9548 65.7991 48.415C65.7991 48.8692 65.9111 49.2537 66.1351 49.5686C66.3592 49.8774 66.665 50.0318 67.0526 50.0318C67.4643 50.0318 67.7762 49.8804 67.9881 49.5777C68.2061 49.2749 68.3151 48.8904 68.3151 48.4241C68.3151 47.9457 68.2122 47.5551 68.0063 47.2523C67.8004 46.9435 67.4795 46.7891 67.0435 46.7891Z" fill="#6132CC"/>
<path d="M62.8902 44.5801H63.8258V50.7022H62.8902V48.0227H60.138V50.7022H59.2024V44.5801H60.138V47.2142H62.8902V44.5801Z" fill="#6132CC"/>
<path d="M55.0196 48.0686V47.9051C55.0075 47.5599 54.9137 47.2874 54.7381 47.0876C54.5624 46.8817 54.3111 46.7787 53.9841 46.7787C53.6814 46.7787 53.421 46.8907 53.203 47.1148C52.985 47.3328 52.8487 47.6507 52.7942 48.0686H55.0196ZM55.5919 49.6581V50.4575C55.2528 50.6512 54.8047 50.7481 54.2476 50.7481C53.533 50.7481 52.9638 50.5332 52.5399 50.1032C52.116 49.6733 51.9041 49.1101 51.9041 48.4137C51.9041 47.6749 52.0978 47.0966 52.4854 46.6788C52.8729 46.2549 53.3665 46.043 53.966 46.043C54.5534 46.043 55.0196 46.2277 55.3648 46.5971C55.71 46.9604 55.8826 47.4872 55.8826 48.1776C55.8826 48.3653 55.8644 48.5621 55.8281 48.768H52.8033C52.8639 49.1676 53.0334 49.4734 53.312 49.6854C53.5905 49.8973 53.9417 50.0033 54.3656 50.0033C54.8561 50.0033 55.2649 49.8882 55.5919 49.6581Z" fill="#6132CC"/>
<path d="M48.0121 48.0686V47.9051C48 47.5599 47.9061 47.2874 47.7305 47.0876C47.5549 46.8817 47.3036 46.7787 46.9766 46.7787C46.6738 46.7787 46.4134 46.8907 46.1954 47.1148C45.9774 47.3328 45.8411 47.6507 45.7866 48.0686H48.0121ZM48.5843 49.6581V50.4575C48.2452 50.6512 47.7971 50.7481 47.24 50.7481C46.5254 50.7481 45.9562 50.5332 45.5323 50.1032C45.1084 49.6733 44.8965 49.1101 44.8965 48.4137C44.8965 47.6749 45.0903 47.0966 45.4778 46.6788C45.8654 46.2549 46.3589 46.043 46.9584 46.043C47.5458 46.043 48.0121 46.2277 48.3572 46.5971C48.7024 46.9604 48.875 47.4872 48.875 48.1776C48.875 48.3653 48.8568 48.5621 48.8205 48.768H45.7957C45.8563 49.1676 46.0258 49.4734 46.3044 49.6854C46.583 49.8973 46.9342 50.0033 47.3581 50.0033C47.8486 50.0033 48.2573 49.8882 48.5843 49.6581Z" fill="#6132CC"/>
<path d="M41.0381 44.2812V46.8882C41.2985 46.3189 41.7739 46.0343 42.4642 46.0343C42.9123 46.0343 43.2726 46.1736 43.5451 46.4522C43.8176 46.7307 43.9539 47.1183 43.9539 47.6148V50.7032H43.0637V47.7965C43.0637 47.4816 42.9819 47.2394 42.8184 47.0698C42.661 46.8942 42.4521 46.8064 42.1917 46.8064C41.8889 46.8064 41.6194 46.9215 41.3833 47.1516C41.1532 47.3817 41.0381 47.7329 41.0381 48.2053V50.7032H40.1479V44.2812H41.0381Z" fill="#6132CC"/>
<path d="M36.5353 48.4227C36.5474 48.889 36.6898 49.2735 36.9623 49.5763C37.2348 49.873 37.6163 50.0214 38.1068 50.0214C38.4701 50.0214 38.8092 49.9215 39.1241 49.7216V50.521C38.8274 50.7026 38.4489 50.7935 37.9887 50.7935C37.2681 50.7935 36.6928 50.5664 36.2628 50.1122C35.8329 49.658 35.6179 49.0918 35.6179 48.4136C35.6179 47.7536 35.8329 47.1904 36.2628 46.7241C36.6988 46.2518 37.2862 46.0156 38.025 46.0156C38.4247 46.0156 38.791 46.1004 39.1241 46.27V47.0875C38.8274 46.8997 38.4913 46.8059 38.1158 46.8059C37.6374 46.8059 37.2529 46.9573 36.9623 47.26C36.6776 47.5628 36.5353 47.9504 36.5353 48.4227Z" fill="#6132CC"/>
<path d="M33.9613 48.0686V47.9051C33.9492 47.5599 33.8553 47.2874 33.6797 47.0876C33.5041 46.8817 33.2528 46.7787 32.9258 46.7787C32.623 46.7787 32.3626 46.8907 32.1446 47.1148C31.9266 47.3328 31.7904 47.6507 31.7359 48.0686H33.9613ZM34.5335 49.6581V50.4575C34.1944 50.6512 33.7463 50.7481 33.1892 50.7481C32.4746 50.7481 31.9054 50.5332 31.4815 50.1032C31.0576 49.6733 30.8457 49.1101 30.8457 48.4137C30.8457 47.6749 31.0395 47.0966 31.427 46.6788C31.8146 46.2549 32.3081 46.043 32.9076 46.043C33.495 46.043 33.9613 46.2277 34.3065 46.5971C34.6516 46.9604 34.8242 47.4872 34.8242 48.1776C34.8242 48.3653 34.806 48.5621 34.7697 48.768H31.745C31.8055 49.1676 31.9751 49.4734 32.2536 49.6854C32.5322 49.8973 32.8834 50.0033 33.3073 50.0033C33.7978 50.0033 34.2065 49.8882 34.5335 49.6581Z" fill="#6132CC"/>
<path d="M28.9121 46.0982V46.9066C29.1362 46.3373 29.5389 46.0527 30.1202 46.0527C30.205 46.0527 30.2989 46.0618 30.4018 46.08V46.952C30.2746 46.8975 30.1323 46.8702 29.9749 46.8702C29.6661 46.8702 29.4117 47.0065 29.2119 47.279C29.0121 47.5515 28.9121 47.8755 28.9121 48.2509V50.7034H28.022V46.0982H28.9121Z" fill="#6132CC"/>
<path d="M26.9821 44.8361V45.7535C26.7156 45.6082 26.4734 45.5083 26.2554 45.4538C26.0435 45.3932 25.771 45.3629 25.4379 45.3629C24.8263 45.3629 24.3146 45.5718 23.9028 45.9897C23.4971 46.4014 23.2942 46.9495 23.2942 47.6338C23.2942 48.3301 23.4971 48.8842 23.9028 49.296C24.3085 49.7078 24.8445 49.9137 25.5106 49.9137C26.098 49.9137 26.5915 49.7623 26.9911 49.4595V50.4042C26.6157 50.6524 26.0949 50.7766 25.4288 50.7766C24.5144 50.7766 23.7666 50.492 23.1852 49.9228C22.6039 49.3535 22.3132 48.5905 22.3132 47.6338C22.3132 46.7073 22.6039 45.9533 23.1852 45.372C23.7726 44.7907 24.5144 44.5 25.4106 44.5C26.0646 44.5 26.5885 44.612 26.9821 44.8361Z" fill="#6132CC"/>
</svg>
