<svg width="62" height="37" viewBox="0 0 62 37" fill="none" xmlns="http://www.w3.org/2000/svg" xmlns:xlink="http://www.w3.org/1999/xlink">
<rect width="62" height="37" fill="#4EA177"/>
<rect width="62" height="37" fill="url(#pattern0_2531_637)" fill-opacity="0.2"/>
<defs>
<pattern id="pattern0_2531_637" patternUnits="userSpaceOnUse" patternTransform="matrix(61.8949 0 0 37.3758 0 0)" preserveAspectRatio="none" viewBox="0 0 562.681 339.78" width="1" height="1">
<use xlink:href="#pattern0_2531_637_inner" transform="translate(0 -339.78)"/>
<use xlink:href="#pattern0_2531_637_inner" transform="translate(281.34 -169.89)"/>
<g id="pattern0_2531_637_inner">
<path fill-rule="evenodd" clip-rule="evenodd" d="M265.415 132.707C265.415 132.707 265.045 243.344 265.045 271.601C265.045 299.859 238.237 320.547 205.727 320.547C172.759 320.547 146.042 302.263 146.042 268.671C146.042 235.08 146.052 212.556 146.052 212.556C146.052 207.956 142.324 204.228 137.724 204.228C133.125 204.228 129.397 207.956 129.397 212.556V268.695C129.397 300.455 107.863 320.547 64.72 320.547C29.606 320.547 0 300.994 0 267.215V132.707C0 59.4149 59.415 9.00001e-05 132.707 1.01863e-10C205.999 -8.99999e-05 265.61 59.4152 265.415 132.707ZM168.315 72.0159C165.334 64.9299 155.117 52.5449 138.109 59.7009C121.1 66.8579 117.497 85.0589 120.478 92.1439C117.497 85.0589 101.965 74.9089 84.956 82.0649C67.947 89.2219 69.66 105.187 72.641 112.272C88.271 149.417 147.119 155.905 147.315 155.927C147.315 155.927 183.97 109.222 168.315 72.0159Z" fill="black"/>
</g>
<use xlink:href="#pattern0_2531_637_inner" transform="translate(281.34 169.89)"/>
</pattern></defs>
</svg>
