<svg width="204" height="34" viewBox="0 0 204 34" fill="none" xmlns="http://www.w3.org/2000/svg">
<path d="M17.7988 28.4835L9.17059 33.6812C8.78942 33.9237 8.39093 34.0277 7.97511 33.993C7.5593 33.9584 7.19546 33.8198 6.88359 33.5772C6.57173 33.3347 6.32917 33.0318 6.15591 32.6687C5.98266 32.3055 5.948 31.898 6.05196 31.4462L8.33895 21.6225L0.698314 15.0214C0.3518 14.7095 0.135575 14.354 0.0496398 13.9548C-0.0362957 13.5556 -0.0106538 13.1662 0.126566 12.7864C0.263785 12.4066 0.471694 12.0947 0.750291 11.8508C1.02889 11.6068 1.41005 11.4509 1.89379 11.383L11.9774 10.4994L15.8756 1.24745C16.0489 0.831634 16.3178 0.519771 16.6823 0.311862C17.0469 0.103954 17.419 0 17.7988 0C18.1786 0 18.5507 0.103954 18.9153 0.311862C19.2798 0.519771 19.5487 0.831634 19.7219 1.24745L23.6202 10.4994L33.7038 11.383C34.1889 11.4523 34.5701 11.6082 34.8473 11.8508C35.1245 12.0933 35.3324 12.4052 35.471 12.7864C35.6096 13.1675 35.636 13.5577 35.55 13.9569C35.4641 14.3561 35.2472 14.7109 34.8993 15.0214L27.2586 21.6225L29.5456 31.4462C29.6496 31.8966 29.6149 32.3041 29.4417 32.6687C29.2684 33.0332 29.0258 33.3361 28.714 33.5772C28.4021 33.8184 28.0383 33.957 27.6225 33.993C27.2066 34.0291 26.8082 33.9251 26.427 33.6812L17.7988 28.4835Z" fill="#EDD62D"/>
<path d="M59.7988 28.4835L51.1706 33.6812C50.7894 33.9237 50.3909 34.0277 49.9751 33.993C49.5593 33.9584 49.1955 33.8198 48.8836 33.5772C48.5717 33.3347 48.3292 33.0318 48.1559 32.6687C47.9827 32.3055 47.948 31.898 48.052 31.4462L50.339 21.6225L42.6983 15.0214C42.3518 14.7095 42.1356 14.354 42.0496 13.9548C41.9637 13.5556 41.9893 13.1662 42.1266 12.7864C42.2638 12.4066 42.4717 12.0947 42.7503 11.8508C43.0289 11.6068 43.4101 11.4509 43.8938 11.383L53.9774 10.4994L57.8756 1.24745C58.0489 0.831634 58.3178 0.519771 58.6823 0.311862C59.0469 0.103954 59.419 0 59.7988 0C60.1786 0 60.5507 0.103954 60.9153 0.311862C61.2798 0.519771 61.5487 0.831634 61.7219 1.24745L65.6202 10.4994L75.7038 11.383C76.1889 11.4523 76.5701 11.6082 76.8473 11.8508C77.1245 12.0933 77.3324 12.4052 77.471 12.7864C77.6096 13.1675 77.636 13.5577 77.55 13.9569C77.4641 14.3561 77.2472 14.7109 76.8993 15.0214L69.2586 21.6225L71.5456 31.4462C71.6496 31.8966 71.6149 32.3041 71.4417 32.6687C71.2684 33.0332 71.0258 33.3361 70.714 33.5772C70.4021 33.8184 70.0383 33.957 69.6225 33.993C69.2066 34.0291 68.8082 33.9251 68.427 33.6812L59.7988 28.4835Z" fill="#EDD62D"/>
<path d="M101.799 28.4835L93.1706 33.6812C92.7894 33.9237 92.3909 34.0277 91.9751 33.993C91.5593 33.9584 91.1955 33.8198 90.8836 33.5772C90.5717 33.3347 90.3292 33.0318 90.1559 32.6687C89.9827 32.3055 89.948 31.898 90.052 31.4462L92.339 21.6225L84.6983 15.0214C84.3518 14.7095 84.1356 14.354 84.0496 13.9548C83.9637 13.5556 83.9893 13.1662 84.1266 12.7864C84.2638 12.4066 84.4717 12.0947 84.7503 11.8508C85.0289 11.6068 85.4101 11.4509 85.8938 11.383L95.9774 10.4994L99.8756 1.24745C100.049 0.831634 100.318 0.519771 100.682 0.311862C101.047 0.103954 101.419 0 101.799 0C102.179 0 102.551 0.103954 102.915 0.311862C103.28 0.519771 103.549 0.831634 103.722 1.24745L107.62 10.4994L117.704 11.383C118.189 11.4523 118.57 11.6082 118.847 11.8508C119.125 12.0933 119.332 12.4052 119.471 12.7864C119.61 13.1675 119.636 13.5577 119.55 13.9569C119.464 14.3561 119.247 14.7109 118.899 15.0214L111.259 21.6225L113.546 31.4462C113.65 31.8966 113.615 32.3041 113.442 32.6687C113.268 33.0332 113.026 33.3361 112.714 33.5772C112.402 33.8184 112.038 33.957 111.622 33.993C111.207 34.0291 110.808 33.9251 110.427 33.6812L101.799 28.4835Z" fill="#EDD62D"/>
<path d="M143.799 28.4835L135.171 33.6812C134.789 33.9237 134.391 34.0277 133.975 33.993C133.559 33.9584 133.195 33.8198 132.884 33.5772C132.572 33.3347 132.329 33.0318 132.156 32.6687C131.983 32.3055 131.948 31.898 132.052 31.4462L134.339 21.6225L126.698 15.0214C126.352 14.7095 126.136 14.354 126.05 13.9548C125.964 13.5556 125.989 13.1662 126.127 12.7864C126.264 12.4066 126.472 12.0947 126.75 11.8508C127.029 11.6068 127.41 11.4509 127.894 11.383L137.977 10.4994L141.876 1.24745C142.049 0.831634 142.318 0.519771 142.682 0.311862C143.047 0.103954 143.419 0 143.799 0C144.179 0 144.551 0.103954 144.915 0.311862C145.28 0.519771 145.549 0.831634 145.722 1.24745L149.62 10.4994L159.704 11.383C160.189 11.4523 160.57 11.6082 160.847 11.8508C161.125 12.0933 161.332 12.4052 161.471 12.7864C161.61 13.1675 161.636 13.5577 161.55 13.9569C161.464 14.3561 161.247 14.7109 160.899 15.0214L153.259 21.6225L155.546 31.4462C155.65 31.8966 155.615 32.3041 155.442 32.6687C155.268 33.0332 155.026 33.3361 154.714 33.5772C154.402 33.8184 154.038 33.957 153.622 33.993C153.207 34.0291 152.808 33.9251 152.427 33.6812L143.799 28.4835Z" fill="#EDD62D"/>
<path d="M185.799 28.4835L177.171 33.6812C176.789 33.9237 176.391 34.0277 175.975 33.993C175.559 33.9584 175.195 33.8198 174.884 33.5772C174.572 33.3347 174.329 33.0318 174.156 32.6687C173.983 32.3055 173.948 31.898 174.052 31.4462L176.339 21.6225L168.698 15.0214C168.352 14.7095 168.136 14.354 168.05 13.9548C167.964 13.5556 167.989 13.1662 168.127 12.7864C168.264 12.4066 168.472 12.0947 168.75 11.8508C169.029 11.6068 169.41 11.4509 169.894 11.383L179.977 10.4994L183.876 1.24745C184.049 0.831634 184.318 0.519771 184.682 0.311862C185.047 0.103954 185.419 0 185.799 0C186.179 0 186.551 0.103954 186.915 0.311862C187.28 0.519771 187.549 0.831634 187.722 1.24745L191.62 10.4994L201.704 11.383C202.189 11.4523 202.57 11.6082 202.847 11.8508C203.125 12.0933 203.332 12.4052 203.471 12.7864C203.61 13.1675 203.636 13.5577 203.55 13.9569C203.464 14.3561 203.247 14.7109 202.899 15.0214L195.259 21.6225L197.546 31.4462C197.65 31.8966 197.615 32.3041 197.442 32.6687C197.268 33.0332 197.026 33.3361 196.714 33.5772C196.402 33.8184 196.038 33.957 195.622 33.993C195.207 34.0291 194.808 33.9251 194.427 33.6812L185.799 28.4835Z" fill="#EDD62D"/>
</svg>
