<svg width="120" height="24" viewBox="0 0 120 24" fill="none" xmlns="http://www.w3.org/2000/svg">
  <!-- 5 Star Rating -->
  <path d="M12 2L14.09 8.26L20 9.27L15.45 13.97L16.18 20L12 17.27L7.82 20L8.55 13.97L4 9.27L9.91 8.26L12 2Z" fill="#EDD62D"/>
  <path d="M36 2L38.09 8.26L44 9.27L39.45 13.97L40.18 20L36 17.27L31.82 20L32.55 13.97L28 9.27L33.91 8.26L36 2Z" fill="#EDD62D"/>
  <path d="M60 2L62.09 8.26L68 9.27L63.45 13.97L64.18 20L60 17.27L55.82 20L56.55 13.97L52 9.27L57.91 8.26L60 2Z" fill="#EDD62D"/>
  <path d="M84 2L86.09 8.26L92 9.27L87.45 13.97L88.18 20L84 17.27L79.82 20L80.55 13.97L76 9.27L81.91 8.26L84 2Z" fill="#EDD62D"/>
  <path d="M108 2L110.09 8.26L116 9.27L111.45 13.97L112.18 20L108 17.27L103.82 20L104.55 13.97L100 9.27L105.91 8.26L108 2Z" fill="#EDD62D"/>
</svg>
