<svg width="214" height="214" viewBox="0 0 214 214" fill="none" xmlns="http://www.w3.org/2000/svg">
<rect width="214" height="214" fill="#4EA177"/>
<path d="M106.547 41.0254C136.615 41.0255 160.991 65.4011 160.991 95.4697V151.86C160.992 151.904 160.993 151.949 160.993 151.993C160.993 152.037 160.992 152.081 160.991 152.125V152.465H160.986C160.687 163.59 149.84 172.532 136.503 172.532C122.978 172.532 112.014 163.336 112.014 151.993C112.014 151.816 112.016 151.639 112.021 151.463V124.812H112.02C112.02 123.221 110.491 121.931 108.604 121.931C106.718 121.931 105.188 123.221 105.188 124.812V151.277C105.196 151.475 105.2 151.673 105.2 151.872C105.2 163.282 93.3152 172.532 78.6543 172.532C64.2482 172.532 52.5233 163.601 52.1201 152.465H52.1025V95.4697C52.1025 65.401 76.4782 41.0254 106.547 41.0254ZM121.534 70.792C120.307 67.8762 116.102 62.7785 109.103 65.7236C102.103 68.669 100.621 76.1594 101.848 79.0752C100.621 76.1594 94.2282 71.9818 87.2285 74.9268C80.2289 77.8719 80.9333 84.4425 82.1602 87.3584C88.5916 102.643 112.805 105.315 112.892 105.324C112.892 105.324 127.976 86.1038 121.534 70.792Z" fill="#6132CC"/>
</svg>
