<svg width="214" height="214" viewBox="0 0 214 214" fill="none" xmlns="http://www.w3.org/2000/svg">
<rect width="214" height="214" fill="#6132CC"/>
<path d="M106.547 40.8887C136.615 40.889 160.991 65.2645 160.991 95.333V151.724C160.992 151.768 160.993 151.812 160.993 151.856C160.993 151.9 160.992 151.944 160.991 151.988V152.328H160.986C160.687 163.454 149.84 172.396 136.503 172.396C122.978 172.395 112.013 163.2 112.013 151.856C112.013 151.679 112.015 151.502 112.021 151.326V124.674H112.019C112.018 123.083 110.49 121.793 108.604 121.793C106.718 121.793 105.188 123.083 105.188 124.674V151.12C105.195 151.324 105.2 151.53 105.2 151.735C105.2 163.146 93.3152 172.395 78.6543 172.396C64.2483 172.395 52.5233 163.464 52.1201 152.328H52.1025V95.333C52.1025 65.2644 76.4783 40.8888 106.547 40.8887ZM109.265 64.7363C105.094 64.2649 100.881 65.1308 97.2354 67.21C93.5893 69.2892 90.6984 72.4741 88.9805 76.3037C89.9898 76.4214 90.9889 76.6154 91.9688 76.8848C94.4767 77.5634 96.8259 78.7328 98.8789 80.3252C100.932 81.9176 102.649 83.9017 103.93 86.1621C105.222 88.4149 106.055 90.9018 106.38 93.4785C106.705 96.0554 106.516 98.6714 105.824 101.175C105.691 101.663 105.537 102.152 105.368 102.626C105.199 103.1 105.006 103.58 104.798 104.043C108.969 104.515 113.183 103.649 116.829 101.569C120.476 99.49 123.367 96.3046 125.085 92.4746C124.075 92.3569 123.076 92.163 122.096 91.8936C119.588 91.2154 117.24 90.0468 115.187 88.4551C113.133 86.8633 111.416 84.8799 110.135 82.6201C108.842 80.3668 108.009 77.8792 107.684 75.3018C107.358 72.7242 107.547 70.1074 108.24 67.6035C108.508 66.6232 108.851 65.6647 109.265 64.7363ZM87.7412 80C86.6405 84.828 87.3911 89.8931 89.8447 94.1943C92.2983 98.4955 96.2762 101.72 100.992 103.229C101.3 102.624 101.57 102 101.799 101.36C101.936 100.976 102.061 100.58 102.17 100.181C104.497 91.6728 99.469 82.8611 90.9629 80.5342C89.9101 80.2467 88.8304 80.0681 87.7412 80ZM113.046 65.5537C112.551 66.5262 112.157 67.547 111.869 68.5996C109.542 77.106 114.57 85.9202 123.076 88.2471C124.129 88.5353 125.208 88.7152 126.297 88.7842C127.398 83.9562 126.647 78.8911 124.193 74.5898C121.74 70.2885 117.762 67.0637 113.046 65.5537Z" fill="white"/>
</svg>
