<svg width="214" height="214" viewBox="0 0 214 214" fill="none" xmlns="http://www.w3.org/2000/svg">
<rect width="214" height="214" fill="#4EA177"/>
<path d="M106.547 40.8887C136.615 40.889 160.991 65.2645 160.991 95.333V151.724C160.992 151.768 160.993 151.812 160.993 151.856C160.993 151.9 160.992 151.944 160.991 151.988V152.328H160.986C160.687 163.454 149.84 172.396 136.503 172.396C122.978 172.395 112.013 163.2 112.013 151.856C112.013 151.672 112.016 151.488 112.021 151.305V124.674H112.02C112.019 123.083 110.49 121.793 108.604 121.793C106.718 121.793 105.189 123.083 105.188 124.674V151.141C105.196 151.338 105.2 151.536 105.2 151.735C105.2 163.146 93.3152 172.395 78.6543 172.396C64.2483 172.395 52.5233 163.464 52.1201 152.328H52.1025V95.333C52.1025 65.2644 76.4783 40.8888 106.547 40.8887ZM103.151 66.0566C102.73 65.9451 102.287 65.9462 101.866 66.0586C101.446 66.171 101.062 66.3911 100.754 66.6973C100.445 67.0036 100.223 67.3858 100.108 67.8047L97.2031 78.4463L87.3623 83.4932C86.975 83.6919 86.6466 83.9888 86.4102 84.3535C86.1737 84.7182 86.0373 85.1386 86.0146 85.5723C85.992 86.0059 86.0841 86.438 86.2812 86.8252C86.4785 87.2125 86.7741 87.5416 87.1387 87.7793L96.3945 93.8203L98.166 104.709C98.2357 105.138 98.4177 105.541 98.6924 105.878C98.9671 106.215 99.3258 106.474 99.7324 106.63C100.139 106.786 100.58 106.832 101.011 106.765C101.441 106.697 101.846 106.519 102.186 106.247L110.812 99.3359L121.747 101.021C122.178 101.088 122.619 101.04 123.025 100.884C123.432 100.727 123.79 100.467 124.064 100.13C124.338 99.7924 124.519 99.3887 124.588 98.96C124.657 98.5312 124.612 98.0915 124.457 97.6855L120.529 87.373L125.516 77.5264C125.712 77.1389 125.802 76.7068 125.778 76.2734C125.755 75.8402 125.618 75.4206 125.381 75.0566C125.144 74.6926 124.815 74.3962 124.428 74.1982C124.04 74.0004 123.608 73.908 123.173 73.9287L112.119 74.4629L104.266 66.6934C103.956 66.3877 103.572 66.1682 103.151 66.0566Z" fill="white"/>
</svg>
