<svg width="214" height="214" viewBox="0 0 214 214" fill="none" xmlns="http://www.w3.org/2000/svg">
<rect width="214" height="214" fill="#6132CC"/>
<path d="M106.547 40.8887C136.615 40.889 160.991 65.2645 160.991 95.333V151.724C160.992 151.768 160.993 151.812 160.993 151.856C160.993 151.9 160.992 151.944 160.991 151.988V152.328H160.986C160.687 163.454 149.84 172.396 136.503 172.396C122.978 172.395 112.013 163.2 112.013 151.856C112.013 151.679 112.015 151.502 112.021 151.326V124.674H112.019C112.018 123.083 110.49 121.793 108.604 121.793C106.718 121.793 105.188 123.083 105.188 124.674V151.12C105.195 151.324 105.2 151.53 105.2 151.735C105.2 163.146 93.3152 172.395 78.6543 172.396C64.2483 172.395 52.5233 163.464 52.1201 152.328H52.1025V95.333C52.1025 65.2644 76.4783 40.8888 106.547 40.8887ZM119.876 70.4365C108.151 84.0933 100.065 87.9616 81.9932 85.7764L86.0137 96.2764C93.2577 96.5267 98.88 95.9996 103.839 94.4629L101.216 100.666C100.864 101.498 101.247 102.471 102.071 102.84L110.634 106.67C111.458 107.039 112.412 106.663 112.764 105.831L116.513 96.9678C116.864 96.1361 116.481 95.1627 115.657 94.7939L109.599 92.084C114.308 89.6222 118.727 85.992 123.896 80.9365L119.876 70.4365ZM92.6318 89.4883C93.6824 89.4883 94.5339 90.2768 94.5342 91.249C94.5341 92.2213 93.6825 93.0098 92.6318 93.0098C91.5816 93.0093 90.7296 92.2211 90.7295 91.249C90.7298 90.2771 91.5817 89.4887 92.6318 89.4883ZM105.188 86.749C106.239 86.7491 107.09 87.5377 107.091 88.5098C107.091 89.4821 106.239 90.2704 105.188 90.2705C104.138 90.2701 103.286 89.4819 103.286 88.5098C103.286 87.5379 104.138 86.7494 105.188 86.749ZM118.579 68.1016C103.385 71.1962 95.2058 74.19 81.6406 83.0703L81.6836 83.1826L81.9824 83.2188C84.5737 83.5321 86.9348 83.7147 89.1104 83.7627C97.1893 78.3225 103.891 75.6698 113.179 73.9736C114.788 72.3885 116.451 70.5811 118.213 68.5293L118.579 68.1016ZM116.223 79.3154C117.273 79.3155 118.125 80.104 118.125 81.0762C118.125 82.0485 117.273 82.8368 116.223 82.8369C115.172 82.8365 114.32 82.0483 114.32 81.0762C114.321 80.1042 115.172 79.3158 116.223 79.3154Z" fill="#4EA177"/>
</svg>
