<svg width="214" height="214" viewBox="0 0 214 214" fill="none" xmlns="http://www.w3.org/2000/svg">
<rect width="214" height="214" fill="#4EA177"/>
<path d="M106.547 40.8887C136.615 40.889 160.991 65.2645 160.991 95.333V151.724C160.992 151.768 160.993 151.812 160.993 151.856C160.993 151.9 160.992 151.944 160.991 151.988V152.328H160.986C160.687 163.454 149.84 172.396 136.503 172.396C122.978 172.395 112.013 163.2 112.013 151.856C112.013 151.672 112.016 151.488 112.021 151.305V124.674H112.02C112.019 123.083 110.49 121.793 108.604 121.793C106.718 121.793 105.189 123.083 105.188 124.674V151.141C105.196 151.338 105.2 151.536 105.2 151.735C105.2 163.146 93.3152 172.395 78.6543 172.396C64.2483 172.395 52.5233 163.464 52.1201 152.328H52.1025V95.333C52.1025 65.2644 76.4783 40.8888 106.547 40.8887ZM118.734 70.7139C115.032 68.0973 91.0137 75.2898 87.4922 79.3711C83.9707 83.4524 85.8841 99.0283 89.8184 104.558C93.7526 110.086 130.142 98.8398 130.138 92.4922C130.131 86.1447 122.436 73.331 118.734 70.7139ZM103.416 76.2803C111.768 73.9661 118.991 73.7269 119.551 75.7461C120.109 77.7654 113.793 81.2777 105.441 83.5918C97.09 85.9058 89.8659 86.1447 89.3057 84.126C88.7474 82.1067 95.0647 78.5943 103.416 76.2803Z" fill="#6132CC"/>
</svg>
