<svg width="214" height="214" viewBox="0 0 214 214" fill="none" xmlns="http://www.w3.org/2000/svg">
<rect width="214" height="214" fill="#6132CC"/>
<path d="M106.547 40.8887C136.615 40.889 160.991 65.2645 160.991 95.333V151.724C160.992 151.768 160.993 151.812 160.993 151.856C160.993 151.9 160.992 151.944 160.991 151.988V152.328H160.986C160.687 163.454 149.84 172.396 136.503 172.396C122.978 172.395 112.013 163.2 112.013 151.856C112.013 151.679 112.015 151.502 112.021 151.326V124.674H112.019C112.018 123.083 110.49 121.793 108.604 121.793C106.718 121.793 105.188 123.083 105.188 124.674V151.12C105.195 151.324 105.2 151.53 105.2 151.735C105.2 163.146 93.3152 172.395 78.6543 172.396C64.2483 172.395 52.5233 163.464 52.1201 152.328H52.1025V95.333C52.1025 65.2644 76.4783 40.8888 106.547 40.8887ZM119.653 68.5156C116.992 65.17 113.469 66.4973 112.04 67.5791C108.669 70.1321 107.245 74.2582 106.696 78.0273L98.7949 84.582C94.7997 84.0806 90.0994 84.3148 86.5771 86.9824C85.1488 88.0643 82.9566 91.0653 85.6182 94.4111C88.2798 97.757 92.6341 97.4744 94.0625 96.3926C92.6341 97.4745 91.274 101.521 93.9355 104.867C96.5972 108.213 100.12 106.885 101.549 105.803C105.361 102.915 106.683 98.0147 107.064 93.8945L113.884 88.6709C118.058 89.3223 123.218 89.2728 127.012 86.3994C128.44 85.3173 130.632 82.3163 127.971 78.9707C125.309 75.6257 120.955 75.9078 119.526 76.9893C120.954 75.9067 122.314 71.861 119.653 68.5156Z" fill="#4EA177"/>
</svg>
