<svg width="267" height="267" viewBox="0 0 267 267" fill="none" xmlns="http://www.w3.org/2000/svg">
<path d="M92.8119 260.667C94.8926 256.579 96.7102 252.363 98.2536 248.045C99.1791 245.452 100.021 242.782 100.758 240.088C116.471 182.661 82.525 123.184 25.0929 107.478C17.984 105.538 10.6955 104.329 3.34086 103.869C-4.0912 136.458 0.977007 170.648 17.5436 199.68C34.1102 228.713 60.9694 250.476 92.8119 260.667Z" fill="#E9DEFF"/>
<path d="M154.536 121.555C145.807 106.345 140.183 89.5556 137.987 72.1582C135.792 54.7607 137.071 37.1008 141.748 20.2005C143.558 13.5828 145.869 7.11255 148.662 0.845739C120.503 -2.33659 92.0605 3.51183 67.4436 17.5462C42.8267 31.5806 23.3094 53.0745 11.7108 78.9232C18.5265 79.7178 25.2718 81.0301 31.8883 82.8486C48.8214 87.4292 64.6774 95.3221 78.5386 106.07C92.3997 116.819 103.991 130.209 112.64 145.466C121.367 160.672 126.992 177.457 129.188 194.85C131.384 212.244 130.108 229.9 125.435 246.797C124.533 250.093 123.495 253.389 122.354 256.589C121.213 259.79 119.908 263.025 118.502 266.153C146.664 269.338 175.111 263.491 199.731 249.456C224.352 235.422 243.872 213.926 255.472 188.074C248.656 187.28 241.911 185.967 235.295 184.149C218.362 179.572 202.506 171.683 188.644 160.938C174.782 150.194 163.189 136.808 154.536 121.555Z" fill="#E9DEFF"/>
<path d="M241.912 159.535C249.018 161.481 256.305 162.696 263.659 163.162C271.091 130.574 266.023 96.3856 249.458 67.3532C232.893 38.3209 206.035 16.5579 174.194 6.36609C170.852 12.9309 168.189 19.8199 166.247 26.9258C150.536 84.3412 184.48 143.83 241.912 159.535Z" fill="#E9DEFF"/>
</svg>
