<svg width="295" height="305" viewBox="0 0 295 305" fill="none" xmlns="http://www.w3.org/2000/svg">
<path d="M104.562 13.6445C105.411 10.5222 107.062 7.6775 109.351 5.39401C111.64 3.11052 114.486 1.4681 117.606 0.63059C120.727 -0.206918 124.012 -0.21024 127.133 0.620958C130.255 1.45216 133.105 3.08882 135.399 5.36768L193.654 63.2721L275.642 59.2904C278.868 59.1358 282.078 59.8308 284.951 61.3062C287.825 62.7815 290.263 64.9857 292.021 67.699C293.779 70.4123 294.797 73.5398 294.973 76.7699C295.148 80 294.475 83.2197 293.021 86.1081L256.041 159.505L285.17 236.37C286.317 239.397 286.652 242.672 286.141 245.868C285.63 249.065 284.29 252.072 282.256 254.588C280.222 257.104 277.565 259.041 274.55 260.207C271.535 261.372 268.267 261.725 265.073 261.23L183.954 248.67L119.972 300.177C117.453 302.205 114.447 303.536 111.254 304.037C108.061 304.538 104.793 304.191 101.775 303.031C98.7581 301.871 96.0974 299.938 94.0591 297.425C92.0208 294.913 90.676 291.909 90.1592 288.713L77.0193 207.556L8.36153 162.529C5.65707 160.757 3.46394 158.306 2.0011 155.419C0.538268 152.532 -0.143101 149.312 0.0250211 146.079C0.193144 142.846 1.20488 139.714 2.95921 136.996C4.71355 134.277 7.14911 132.067 10.0227 130.586L83.0145 92.9689L104.562 13.6445Z" fill="#E9DEFF"/>
</svg>
