<svg width="372" height="338" viewBox="0 0 372 338" fill="none" xmlns="http://www.w3.org/2000/svg">
<path d="M229.331 9.93881C241.168 0.945597 270.364 -10.0939 292.42 17.7191C314.476 45.532 303.201 79.1702 291.365 88.1634C303.201 79.1703 339.289 76.8216 361.345 104.634C383.401 132.447 365.234 157.394 353.398 166.387C323.612 189.018 283.66 190.586 250.124 186.082L187.573 233.999C183.785 267.068 172.368 304.901 142.391 327.677C130.554 336.67 101.359 347.711 79.303 319.898C57.2469 292.085 68.5223 258.447 80.3587 249.453C68.5223 258.447 32.4334 260.795 10.3773 232.982C-11.6781 205.169 6.48911 180.223 18.3255 171.23C49.0209 147.908 90.5137 146.953 124.654 151.962L184.28 102.5C188.196 69.7001 199.691 32.4594 229.331 9.93881Z" fill="#E9DEFF"/>
</svg>
