<svg width="324" height="297" viewBox="0 0 324 297" fill="none" xmlns="http://www.w3.org/2000/svg">
<path d="M323.792 98.3486C284.179 137.088 250.323 164.911 214.235 183.773L260.651 204.534C266.969 207.36 269.905 214.817 267.209 221.191L238.484 289.103C235.788 295.477 228.481 298.354 222.163 295.528L156.552 266.183C150.234 263.357 147.298 255.899 149.994 249.525L170.096 202C132.098 213.774 89.0179 217.808 33.5098 215.89L2.70117 135.436C141.176 152.18 203.139 122.541 292.983 17.8945L323.792 98.3486ZM84.2227 163.881C76.172 163.881 69.6457 169.921 69.6455 177.372C69.6455 184.823 76.1719 190.863 84.2227 190.863C92.2737 190.863 98.8008 184.823 98.8008 177.372C98.8006 169.921 92.2736 163.881 84.2227 163.881ZM180.437 142.895C172.386 142.895 165.859 148.935 165.858 156.386C165.858 163.837 172.386 169.877 180.437 169.877C188.488 169.877 195.015 163.837 195.015 156.386C195.014 148.935 188.487 142.895 180.437 142.895ZM280.234 3.27734C266.737 18.999 253.999 32.8454 241.665 44.9912C170.494 57.988 119.144 78.3174 57.2373 120.004C40.5665 119.636 22.4792 118.236 2.62207 115.835L0.328125 115.557L0 114.698C103.946 46.651 166.621 23.7133 283.047 0L280.234 3.27734ZM264.988 85.9316C256.937 85.9318 250.41 91.9721 250.41 99.4229C250.41 106.874 256.937 112.914 264.988 112.914C273.039 112.914 279.565 106.874 279.565 99.4229C279.565 91.9721 273.039 85.9318 264.988 85.9316Z" fill="#E9DEFF"/>
</svg>
